<svg width="20" height="20" viewBox="0 0 20 20" fill="none" xmlns="http://www.w3.org/2000/svg">
<path opacity="0.8" d="M16.1462 14.2696H14.6931C14.1429 14.2696 13.9729 13.8321 12.9846 12.8305C12.1236 11.9969 11.7429 11.8849 11.5315 11.8849C11.2347 11.8849 11.15 11.9696 11.15 12.379V13.6914C11.15 14.0449 11.0373 14.2563 10.1057 14.2563C8.22647 14.1302 6.61132 13.1053 5.6737 11.6115L5.6597 11.5881C4.57137 10.2364 3.76913 8.60725 3.37234 6.82538L3.35767 6.74736C3.35767 6.53596 3.44237 6.3379 3.85182 6.3379H5.30492C5.6717 6.3379 5.81308 6.50729 5.95512 6.90207C6.674 8.97736 7.87436 10.7979 8.36851 10.7979C8.5519 10.7979 8.63659 10.7132 8.63659 10.2477V8.1011C8.57991 7.1128 8.05775 7.02878 8.05775 6.676C8.06375 6.48728 8.21846 6.33657 8.40786 6.33657C8.41386 6.33657 8.41919 6.33657 8.42519 6.33723H8.42453H10.7112C11.022 6.33723 11.1347 6.50662 11.1347 6.8734V9.7676C11.1347 10.0777 11.2761 10.1911 11.3607 10.1911C11.5441 10.1911 11.7002 10.0777 12.0383 9.73959C12.7412 8.88133 13.342 7.8997 13.8001 6.84139L13.8308 6.76136C13.9275 6.51929 14.1596 6.35124 14.431 6.35124C14.4437 6.35124 14.4557 6.35191 14.4683 6.35257H14.4663H15.9194C16.3569 6.35257 16.4563 6.57731 16.3569 6.88873C15.7741 8.17245 15.1192 9.27545 14.3603 10.2971L14.395 10.2477C14.2403 10.5018 14.1836 10.6145 14.395 10.8979C14.5497 11.1093 15.0585 11.5468 15.3973 11.9423C15.8874 12.4271 16.2982 12.9912 16.6083 13.6141L16.625 13.6508C16.7664 14.0589 16.5543 14.2709 16.1448 14.2709L16.1462 14.2696ZM13.0699 0H6.93008C1.3264 0 0 1.3264 0 6.93008V13.0699C0 18.6736 1.3264 20 6.93008 20H13.0699C18.6736 20 20 18.6736 20 13.0699V6.93008C20 1.3264 18.6589 0 13.0699 0Z" fill="#F9BD4D"/>
</svg>
