<svg width="22" height="22" viewBox="0 0 22 22" fill="none" xmlns="http://www.w3.org/2000/svg">
<path d="M4.23071 8.59585H17.326M14.4159 11.5069L7.14077 11.5059M9.56579 14.4163L7.14077 14.416M7.14077 4.23077V5.6858M14.4159 4.23077V5.6858M6.55876 17.326H14.9979C15.8128 17.326 16.2203 17.326 16.5315 17.1674C16.8053 17.028 17.0279 16.8053 17.1674 16.5316C17.326 16.2203 17.326 15.8129 17.326 14.998V8.01384C17.326 7.19895 17.326 6.7915 17.1674 6.48026C17.0279 6.20647 16.8053 5.98388 16.5315 5.84439C16.2203 5.6858 15.8128 5.6858 14.9979 5.6858H6.55876C5.74387 5.6858 5.33642 5.6858 5.02517 5.84439C4.75139 5.98388 4.5288 6.20647 4.3893 6.48026C4.23071 6.7915 4.23071 7.19895 4.23071 8.01384V14.998C4.23071 15.8129 4.23071 16.2203 4.3893 16.5316C4.5288 16.8053 4.75139 17.028 5.02517 17.1674C5.33642 17.326 5.74386 17.326 6.55876 17.326Z" stroke="black" stroke-linecap="round" stroke-linejoin="round"/>
</svg>
