<svg width="26" height="26" viewBox="0 0 26 26" fill="none" xmlns="http://www.w3.org/2000/svg">
<path d="M5 10.1587H20.4762M17.037 13.5991L8.43915 13.5979M11.3051 17.0375L8.43915 17.037M8.43915 5V6.71958M17.037 5V6.71958M7.75132 20.4762H17.7249C18.6879 20.4762 19.1695 20.4762 19.5373 20.2888C19.8608 20.1239 20.1239 19.8608 20.2888 19.5373C20.4762 19.1695 20.4762 18.6879 20.4762 17.7249V9.4709C20.4762 8.50784 20.4762 8.02632 20.2888 7.65848C20.1239 7.33492 19.8608 7.07186 19.5373 6.907C19.1695 6.71958 18.6879 6.71958 17.7249 6.71958H7.75132C6.78827 6.71958 6.30674 6.71958 5.93891 6.907C5.61534 7.07186 5.35228 7.33492 5.18743 7.65848C5 8.02632 5 8.50784 5 9.4709V17.7249C5 18.6879 5 19.1695 5.18743 19.5373C5.35228 19.8608 5.61534 20.1239 5.93891 20.2888C6.30674 20.4762 6.78827 20.4762 7.75132 20.4762Z" stroke="#958C9B" stroke-linecap="round" stroke-linejoin="round"/>
</svg>
