<svg width="22" height="22" viewBox="0 0 22 22" fill="none" xmlns="http://www.w3.org/2000/svg">
<g clip-path="url(#clip0_3973_25)">
<path d="M22 16.5C22 17.1483 21.7425 17.77 21.284 18.2285C20.8256 18.6869 20.2039 18.9444 19.5556 18.9444H2.44444C1.79614 18.9444 1.17438 18.6869 0.715961 18.2285C0.257539 17.77 0 17.1483 0 16.5V5.49999C0 4.85168 0.257539 4.22993 0.715961 3.7715C1.17438 3.31308 1.79614 3.05554 2.44444 3.05554H19.5556C20.2039 3.05554 20.8256 3.31308 21.284 3.7715C21.7425 4.22993 22 4.85168 22 5.49999V16.5Z" fill="#00AFCA"/>
<path d="M11.6327 11.8421C12.5996 11.8421 13.3835 11.0582 13.3835 10.0913C13.3835 9.12433 12.5996 8.34045 11.6327 8.34045C10.6657 8.34045 9.88184 9.12433 9.88184 10.0913C9.88184 11.0582 10.6657 11.8421 11.6327 11.8421Z" fill="#FFCC4D"/>
<path d="M11.6338 8.20847C11.7377 8.20725 11.7756 8.14186 11.7756 8.06425C11.7756 7.96036 11.6338 7.15002 11.6338 7.15002C11.6338 7.15002 11.4896 7.96036 11.4896 8.06425C11.4896 8.14186 11.5287 8.20847 11.6338 8.20847ZM11.6338 11.9839C11.5287 11.9845 11.4896 12.0499 11.4896 12.1275C11.4896 12.232 11.6338 13.0314 11.6338 13.0314C11.6338 13.0314 11.7756 12.2314 11.7756 12.1275C11.7762 12.0505 11.7377 11.9839 11.6338 11.9839ZM11.1443 11.91C11.0435 11.8843 10.9903 11.9375 10.9701 12.0126C10.9432 12.1129 10.8705 12.933 10.8705 12.933C10.8705 12.933 11.2195 12.1868 11.2463 12.0866C11.2671 12.0114 11.2457 11.9369 11.1443 11.91ZM12.1221 8.26286C12.2235 8.28975 12.2785 8.23597 12.2987 8.16141C12.3256 8.06058 12.3928 7.25086 12.3928 7.25086C12.3928 7.25086 12.0493 7.98602 12.0218 8.08747C12.0017 8.16202 12.0212 8.23597 12.1221 8.26286ZM10.6902 11.7205C10.5992 11.6698 10.5338 11.7071 10.4953 11.7749C10.4433 11.8647 10.161 12.6378 10.161 12.6378C10.161 12.6378 10.6908 12.0077 10.7428 11.9179C10.7819 11.8501 10.7813 11.7731 10.6902 11.7205ZM12.578 8.45047C12.669 8.50302 12.7362 8.46514 12.7747 8.39791C12.8273 8.30747 13.1017 7.54358 13.1017 7.54358C13.1017 7.54358 12.5786 8.16508 12.526 8.25491C12.4881 8.32214 12.4881 8.39852 12.578 8.45047ZM10.3003 11.4217C10.2258 11.349 10.1531 11.3679 10.0981 11.4229C10.0247 11.4969 9.55173 12.1703 9.55173 12.1703C9.55173 12.1703 10.227 11.6985 10.3003 11.6258C10.3553 11.5708 10.3749 11.495 10.3003 11.4217ZM12.9703 8.75114C13.0448 8.82508 13.1188 8.80614 13.1738 8.75114C13.2477 8.6778 13.711 8.00986 13.711 8.00986C13.711 8.00986 13.0454 8.47552 12.9721 8.54947C12.9171 8.60447 12.897 8.6778 12.9703 8.75114ZM10.0021 11.0312C9.94895 10.942 9.87378 10.942 9.80595 10.9805C9.71551 11.0324 9.08484 11.5604 9.08484 11.5604C9.08484 11.5604 9.85912 11.2805 9.94895 11.2286C10.0168 11.1895 10.0547 11.1222 10.0021 11.0312ZM13.2716 9.14347C13.3247 9.23452 13.4017 9.23514 13.4683 9.19664C13.5588 9.14408 14.1791 8.61975 14.1791 8.61975C14.1791 8.61975 13.4158 8.89658 13.3253 8.94852C13.2581 8.98764 13.2202 9.05302 13.2716 9.14347ZM9.81451 10.5771C9.78639 10.4769 9.71306 10.4574 9.63789 10.4769C9.53767 10.5038 8.79151 10.8509 8.79151 10.8509C8.79151 10.8509 9.61162 10.7806 9.71184 10.7537C9.78701 10.733 9.84139 10.6786 9.81451 10.5771ZM13.4604 9.59936C13.4885 9.7008 13.5618 9.72158 13.637 9.70141C13.7378 9.67452 14.473 9.32864 14.473 9.32864C14.473 9.32864 13.6639 9.3983 13.5625 9.42519C13.4879 9.44475 13.4335 9.49914 13.4604 9.59936ZM9.75034 10.0901C9.74912 9.98619 9.68373 9.9483 9.60612 9.9483C9.50223 9.9483 8.69189 10.0901 8.69189 10.0901C8.69189 10.0901 9.50223 10.2343 9.60612 10.2343C9.68373 10.2343 9.75034 10.1952 9.75034 10.0901ZM13.5258 10.0901C13.5264 10.1952 13.5918 10.2343 13.6694 10.2343C13.7739 10.2343 14.5732 10.0901 14.5732 10.0901C14.5732 10.0901 13.7733 9.9483 13.6694 9.9483C13.5918 9.94769 13.5258 9.98619 13.5258 10.0901ZM9.81451 9.60302C9.84017 9.50219 9.78701 9.44902 9.71184 9.42886C9.61162 9.40197 8.79151 9.32925 8.79151 9.32925C8.79151 9.32925 9.53767 9.67819 9.63789 9.70508C9.71306 9.72525 9.78762 9.70447 9.81451 9.60302ZM13.461 10.5802C13.4341 10.6816 13.4879 10.7366 13.5625 10.7568C13.6633 10.7837 14.473 10.8509 14.473 10.8509C14.473 10.8509 13.7378 10.5069 13.6364 10.48C13.5618 10.4604 13.4879 10.4794 13.461 10.5802ZM10.0027 9.14897C10.0535 9.05852 10.0162 8.99252 9.94834 8.95402C9.85851 8.90208 9.08545 8.61975 9.08545 8.61975C9.08545 8.61975 9.71551 9.14958 9.80534 9.20152C9.87317 9.24064 9.95017 9.23941 10.0027 9.14897ZM13.2728 11.0367C13.2202 11.1277 13.2581 11.195 13.3253 11.2335C13.4152 11.286 14.1797 11.5604 14.1797 11.5604C14.1797 11.5604 13.5582 11.0379 13.4683 10.9854C13.4011 10.9469 13.3247 10.9469 13.2728 11.0367ZM10.3016 8.75908C10.3743 8.68452 10.3553 8.6118 10.3003 8.5568C10.2264 8.48347 9.55295 8.01047 9.55295 8.01047C9.55295 8.01047 10.0247 8.68575 10.0975 8.75908C10.1525 8.81408 10.2276 8.83364 10.3016 8.75908ZM12.9721 11.429C12.8982 11.5036 12.9171 11.5781 12.9721 11.6325C13.0454 11.7065 13.7134 12.1697 13.7134 12.1697C13.7134 12.1697 13.2477 11.5042 13.1738 11.4302C13.1188 11.3752 13.0454 11.3551 12.9721 11.429ZM10.6927 8.46025C10.7813 8.40708 10.7819 8.33191 10.7434 8.26408C10.6915 8.17425 10.1635 7.54297 10.1635 7.54297C10.1635 7.54297 10.4433 8.31725 10.4953 8.40708C10.5338 8.47491 10.6016 8.5128 10.6927 8.46025ZM12.5804 11.7303C12.49 11.7829 12.4887 11.8592 12.5272 11.9265C12.5798 12.0169 13.1041 12.6372 13.1041 12.6372C13.1041 12.6372 12.8273 11.8733 12.7753 11.7829C12.7362 11.7162 12.6702 11.6777 12.5804 11.7303ZM11.1461 8.27264C11.2463 8.24452 11.2659 8.17119 11.2463 8.09602C11.2195 7.9958 10.8723 7.24964 10.8723 7.24964C10.8723 7.24964 10.9426 8.06975 10.9695 8.16997C10.9897 8.24514 11.0447 8.29952 11.1461 8.27264ZM12.1239 11.9191C12.0225 11.9472 12.0017 12.0206 12.0218 12.0957C12.0487 12.1966 12.3946 12.9317 12.3946 12.9317C12.3946 12.9317 12.325 12.122 12.2981 12.0218C12.2785 11.9466 12.2241 11.8922 12.1239 11.9191Z" fill="#FFCC4D"/>
<path d="M13.3503 14.4498L13.3277 14.4596L13.3026 14.4632L13.2837 14.4669L13.2488 14.4596L13.2336 14.4534L13.2195 14.4467L13.203 14.4363L13.1755 14.4168L13.1504 14.3966L13.1364 14.3868L13.1187 14.3795L13.1064 14.3764H13.0887L13.0197 14.5201L13.0056 14.5402L12.9922 14.5567L12.9781 14.5671L12.9659 14.5775L12.9482 14.5842H12.9317L12.9164 14.5775L12.895 14.5671L12.8889 14.5567L12.8816 14.5463L12.8742 14.5329L12.8669 14.517L12.8571 14.4663L12.8369 14.4828L12.818 14.5066L12.7801 14.5641L12.7575 14.594L12.7337 14.6172L12.7208 14.6313L12.7043 14.6417L12.6878 14.649L12.6677 14.6551H12.6579L12.6402 14.6588L12.6237 14.6551L12.6108 14.649L12.5717 14.6019L12.5277 14.5549L12.4978 14.6019L12.4629 14.6417L12.4464 14.6582L12.4312 14.6747L12.4147 14.6881L12.3835 14.7052L12.367 14.7089H12.3505L12.3364 14.7052L12.323 14.6979L12.3132 14.6875L12.3004 14.6716C12.2919 14.6467 12.2827 14.6221 12.2729 14.5977L12.2692 14.5806L12.2631 14.5677L12.2558 14.561H12.2484L12.158 14.7089L12.1452 14.7217L12.1213 14.7321L12.0688 14.7449H12.0376L12.0138 14.7382L12.0064 14.7346L11.9967 14.7242L11.9942 14.7181V14.7046L12.0064 14.5567L11.9967 14.5604L11.9704 14.5732C11.9463 14.5983 11.9229 14.624 11.9001 14.6502L11.8702 14.6875L11.8329 14.7187L11.7981 14.7449L11.7785 14.7559L11.7382 14.7621L11.7217 14.7584L11.7143 14.7559L11.7076 14.7486L11.7039 14.7382V14.7278L11.7076 14.6851L11.718 14.6172L11.7113 14.5775L11.6972 14.5543L11.6771 14.5842L11.6441 14.6276C11.6166 14.6575 11.5885 14.6869 11.5597 14.7156C11.5437 14.7263 11.528 14.7375 11.5127 14.7492L11.476 14.7621L11.4687 14.7584H11.4583L11.4509 14.7523L11.4485 14.7486L11.4412 14.7382L11.4387 14.7278V14.715L11.4351 14.6979L11.4387 14.5708C11.3776 14.6123 11.3159 14.6527 11.2536 14.6912L11.2303 14.7016L11.2041 14.715C11.179 14.7211 11.1546 14.7272 11.1301 14.7346H11.1057L11.0831 14.7315L11.0623 14.7242L11.0727 14.6973L11.0928 14.6502L11.1057 14.6307L11.1203 14.6105L11.1332 14.5903L11.1674 14.5567L11.2047 14.5304L11.2474 14.5029L11.2914 14.4828L11.3422 14.4663L11.3923 14.4534L11.5066 14.4333L11.5634 14.4259C11.7321 14.4162 11.9013 14.4149 12.07 14.4162L12.2552 14.4058L12.3126 14.3991L12.4189 14.3789L12.4703 14.3648L12.5179 14.3453L12.5619 14.3251C12.5852 14.3068 12.609 14.2884 12.6334 14.2713L12.6658 14.2334L12.631 14.1668L12.6585 14.1632L12.6848 14.1571L12.7123 14.1436L12.7349 14.1265L12.7447 14.1204L12.7557 14.11L12.763 14.0966L12.7703 14.0868L12.7728 14.0733V14.0501L12.7654 14.0367L12.8229 14.0263L12.884 14.0196L12.9482 14.0159H13.0148C13.1083 14.0196 13.2012 14.0251 13.2941 14.0324C13.4346 14.0495 13.5758 14.0629 13.7169 14.0764L13.8434 14.0831V14.1296L13.841 14.1503L13.8337 14.1699L13.8276 14.1901L13.8202 14.2066L13.8104 14.22C13.7988 14.2334 13.786 14.2469 13.7732 14.2597L13.7432 14.2793L13.7108 14.2927L13.6784 14.3001L13.6412 14.3068L13.5697 14.3001L13.5324 14.2897L13.5 14.2726L13.4652 14.2561L13.4389 14.2322L13.4126 14.2059V14.2634C13.4077 14.3007 13.4016 14.3373 13.3961 14.3746L13.3833 14.4094L13.3759 14.4235L13.3662 14.4333L13.3588 14.4437L13.3503 14.4498ZM10.6504 14.1338L10.7268 14.1674C10.7421 14.1547 10.7577 14.1425 10.7738 14.1308L10.8038 14.1149L10.8307 14.0978L10.9315 14.0574L11.0183 14.0171L11.0623 14.0006L11.1368 13.9609L11.1668 13.9401C11.2426 13.8906 11.3189 13.8417 11.3953 13.7934L11.4619 13.7464L11.5127 13.7061C11.5628 13.6608 11.6117 13.615 11.6606 13.5686L11.6807 13.5551L11.7039 13.5417C11.7318 13.5276 11.7599 13.5142 11.7883 13.5013L11.8451 13.4818C11.9588 13.4506 12.0743 13.4262 12.1904 13.4078C12.3089 13.3938 12.4275 13.3779 12.5461 13.3644L12.7037 13.3376C12.7428 13.3266 12.7819 13.3168 12.8217 13.3076L12.862 13.2569L12.9268 13.1866L12.9708 13.1432L13.0197 13.1023L13.0771 13.0589L13.1437 13.0149L13.2452 12.955C13.3179 12.9183 13.39 12.8817 13.4621 12.8438C13.5904 12.7839 13.7169 12.7203 13.8428 12.6556L13.9027 12.6152L13.9192 12.5645L13.9431 12.515L13.973 12.4643L14.0506 12.3604C14.0861 12.3225 14.1203 12.2846 14.1545 12.2455C14.1961 12.2052 14.2388 12.1661 14.2822 12.1282L14.347 12.075L14.3794 12.0512L14.4142 12.0279C14.4387 12.0139 14.4631 12.0004 14.4882 11.9876L14.5254 11.9705L14.5615 11.9577L14.6403 11.9369L14.6794 11.9344L14.7167 11.9308L14.7558 11.9344L14.7931 11.9406L14.7907 11.9809L14.7809 12.0206L14.7509 12.1049L14.7259 12.1483L14.6959 12.1923L14.6593 12.2388L14.6153 12.2858L14.6501 12.2822L14.6801 12.2754L14.7039 12.2681L14.7265 12.2583L14.7705 12.2449L14.8334 12.2382L14.8371 12.262V12.2852L14.8334 12.3084L14.8273 12.3286L14.8176 12.3488L14.8035 12.3689L14.7907 12.3848L14.7742 12.4019C14.728 12.4465 14.6809 12.4901 14.633 12.5327L14.6727 12.5364C14.7021 12.5456 14.7314 12.5547 14.7613 12.5627L14.7937 12.57L14.7546 12.6006C14.7236 12.6213 14.6922 12.6415 14.6605 12.6611L14.5529 12.7216L14.4992 12.7552L14.4454 12.7924L14.3953 12.8328L14.4179 12.8358L14.4491 12.8493L14.4625 12.8529L14.4753 12.8597L14.4863 12.8627L14.4961 12.8597L14.4295 12.8969C14.3879 12.9165 14.3465 12.9367 14.3054 12.9574L14.2541 12.988L14.2443 12.9984L14.2382 13.0088L14.2309 13.0186L14.2333 13.032L14.2407 13.0424L14.2535 13.0522L14.2657 13.0632L14.2608 13.076L14.2535 13.087L14.2407 13.0968L14.2284 13.1072L14.1961 13.1231L14.1569 13.1402L14.0806 13.1671L14.0329 13.1909L14.0995 13.2575L14.0757 13.2807L14.0531 13.2978L14.0329 13.3082L14.0091 13.318L13.9626 13.3247H13.8966L13.9039 13.3553L13.9137 13.3852L13.9278 13.4531C13.8861 13.4854 13.8435 13.5166 13.8001 13.5466L13.7224 13.5967L13.6363 13.6468L13.5849 13.6706L13.5348 13.6938C13.4783 13.7158 13.421 13.736 13.3631 13.7543L13.2329 13.7818L13.1614 13.7922C13.2391 13.7947 13.3167 13.7959 13.3943 13.7953L13.5849 13.7751L13.6687 13.7586L13.7426 13.7384C13.7915 13.7219 13.8392 13.7036 13.8868 13.6847L13.9797 13.6419L14.0714 13.5912L14.1576 13.5368L14.2492 13.4836L14.1942 13.4567L14.1417 13.4402L14.1166 13.4286C14.0977 13.4194 14.0787 13.4103 14.0592 13.4023L14.028 13.3852L14.0543 13.3657L14.0867 13.3522L14.1215 13.3394C14.1618 13.3296 14.2028 13.3204 14.2431 13.3119C14.2957 13.3064 14.3482 13.2997 14.4008 13.2923L14.4674 13.2856L14.5187 13.2728L14.5322 13.2654L14.5419 13.2551L14.5395 13.2514L14.5322 13.2447L14.5224 13.241L14.5096 13.2349L14.4723 13.2276L14.4246 13.2208L14.3782 13.2172L14.3317 13.2104L14.2902 13.2001L14.2651 13.1897L14.5933 13.1163L14.6507 13.0992C14.6758 13.0901 14.7002 13.0797 14.7247 13.0693L14.7571 13.0485L14.7711 13.0357L14.7674 13.0326L14.7613 13.0253L14.7302 13.0186L14.6874 13.0149H14.6361C14.6012 13.0124 14.567 13.01 14.5322 13.0088L14.4894 13.0014L14.4619 12.9947L14.5096 12.9752C14.5804 12.9532 14.6526 12.933 14.7247 12.9141C14.7656 12.9 14.8072 12.8859 14.8487 12.8737L14.9123 12.8468L14.9422 12.8303L14.9697 12.8138L14.9795 12.8034L14.9899 12.79L14.9997 12.7802L15.0033 12.7698L14.9997 12.7594L14.9899 12.7521L14.9795 12.7497H14.8866L14.8426 12.7521H14.7827L14.765 12.7497L14.7534 12.7423L14.7387 12.7356C14.8609 12.6549 14.9844 12.5749 15.1084 12.4967L15.205 12.4294C15.231 12.4079 15.2565 12.3857 15.2814 12.3628L15.3113 12.3292L15.3388 12.2956L15.359 12.2589L15.3755 12.2223L15.3853 12.1813V12.1379H15.3627L15.3388 12.1416L15.2863 12.1612C15.2397 12.1904 15.1925 12.2186 15.1445 12.2455L15.1182 12.2626L15.0871 12.2754L15.0571 12.2858L15.0296 12.2926L15.0033 12.2962H14.9722L14.9459 12.2858L15.0272 12.2253C15.0926 12.1697 15.1573 12.1135 15.2215 12.0573C15.2924 11.9895 15.3617 11.92 15.4293 11.8489L15.5258 11.7413C15.5546 11.7034 15.5839 11.6668 15.6138 11.6301C15.6377 11.5959 15.6615 11.5611 15.6841 11.5262L15.6914 11.5134L15.6939 11.503L15.6914 11.4889L15.6878 11.4792L15.6841 11.4682L15.6743 11.4614L15.6639 11.4511L15.6542 11.4474L15.6413 11.4413L15.6267 11.4376H15.6004L15.5876 11.4413L15.5698 11.4437L15.5601 11.4547L15.546 11.4651C15.4776 11.5336 15.4097 11.6032 15.3431 11.6735L15.2618 11.7505C15.2085 11.797 15.1547 11.8431 15.1005 11.8886C15.075 11.9059 15.0491 11.9226 15.0229 11.9387L14.9489 11.976L14.9716 11.9558C14.996 11.9326 15.0198 11.9094 15.0431 11.8856C15.1292 11.7866 15.2117 11.6839 15.2912 11.58L15.4464 11.3618L15.4879 11.2885L15.5295 11.2213L15.5631 11.1602L15.5894 11.1027L15.6059 11.0563L15.6096 11.0398V11.0129L15.6059 11.0025L15.5937 10.9823L15.5863 10.9756L15.5753 10.9726L15.5564 10.9616L15.5313 10.9548H15.4855L15.4727 10.9585L15.4629 10.9616L15.4488 10.9689L15.4391 10.9787L15.4116 11.0025C15.3814 11.0388 15.3523 11.0759 15.3242 11.1137C15.2569 11.2188 15.1861 11.3215 15.1127 11.4223L15.0278 11.5232L14.985 11.5672L14.9386 11.6075L14.9984 11.4957L15.0926 11.2983L15.1537 11.1541L15.1799 11.0801L15.2264 10.9286C15.238 10.8797 15.2484 10.8308 15.2576 10.7813C15.2618 10.7354 15.2655 10.6896 15.2686 10.6432L15.2637 10.6096L15.2612 10.5796L15.2576 10.5484L15.2478 10.5093L15.2404 10.4983L15.2239 10.4818L15.2013 10.4721L15.1763 10.4647H15.1537L15.1323 10.4684L15.1262 10.4721L15.1164 10.4745L15.1127 10.4818C15.0522 10.6725 15.0064 10.8668 14.9538 11.0593C14.9343 11.1131 14.9147 11.1669 14.8939 11.2207L14.8438 11.3178L14.8127 11.3612L14.8328 11.2647C14.8426 11.2084 14.8512 11.1528 14.8591 11.0966L14.8732 10.9585L14.8768 10.9011C14.875 10.8719 14.8726 10.8427 14.8695 10.8137L14.8634 10.7801L14.8536 10.7532L14.8396 10.733L14.8322 10.7263L14.8121 10.7196L14.8023 10.7159H14.7913L14.7815 10.7196L14.754 10.7263L14.7277 10.7397C14.7069 10.8436 14.6819 10.9469 14.6538 11.0489C14.6138 11.1777 14.5669 11.3042 14.5132 11.4278C14.477 11.5038 14.4387 11.5788 14.3983 11.6527L14.3244 11.7804L14.2443 11.9008C14.1906 11.976 14.135 12.0498 14.0775 12.1221C14.0213 12.1856 13.9638 12.2479 13.9058 12.3103C13.8453 12.3696 13.7836 12.4282 13.7206 12.4857C13.6558 12.5394 13.5904 12.5914 13.5238 12.6427C13.4426 12.7015 13.3594 12.7575 13.2745 12.8108L13.1266 12.8976L12.8913 13.0057L12.6493 13.0925L12.4489 13.1536L12.2411 13.2001L12.1372 13.2172L11.9246 13.2441L11.817 13.2508L11.8066 13.2544L11.7962 13.2575L11.7761 13.2685L11.7534 13.2844C11.7271 13.3073 11.7013 13.3308 11.6758 13.3547L11.6221 13.4091L11.4271 13.6266L11.3532 13.7006L11.2664 13.7672L11.2322 13.7904L11.1986 13.8112L11.1252 13.8448C11.0116 13.8912 10.8961 13.9334 10.7818 13.9792L10.7518 13.9957L10.7249 14.0098L10.7054 14.0226L10.6681 14.0599L10.6577 14.0764L10.6504 14.0929L10.6479 14.1167V14.1338" fill="#FFCC4D"/>
<path d="M11.8805 14.2848L11.9367 14.2921L11.9642 14.3025L11.9703 14.3055V14.3092H11.9642L11.9569 14.3123L11.9031 14.3227H11.8603L11.7198 14.3123L11.3635 14.3055C11.2694 14.3068 11.1753 14.3092 11.0811 14.3123C10.998 14.3184 10.9155 14.3251 10.8324 14.3324L10.7683 14.3428L10.7114 14.3557C10.698 14.3605 10.6851 14.3654 10.6717 14.3691L10.6546 14.3764L10.6411 14.3868L10.6473 14.3526L10.6619 14.3184L10.6149 14.3318L10.5745 14.352L10.5586 14.3624L10.5446 14.3758L10.5342 14.3917L10.5318 14.4088L10.522 14.3856L10.5146 14.3648C10.5128 14.3503 10.5104 14.3358 10.5073 14.3214C10.511 14.3037 10.5146 14.286 10.5171 14.2683L10.5281 14.2512L10.5342 14.2377L10.5483 14.2218L10.5751 14.1949L10.6118 14.1711L10.6534 14.1479C10.6753 14.1607 10.6987 14.1708 10.723 14.1778C10.7471 14.18 10.7713 14.1777 10.7945 14.1711C10.8318 14.2041 10.9284 14.1974 10.9418 14.1375C10.947 14.1154 10.947 14.0924 10.9418 14.0703L10.9821 14.0672L11.0292 14.0599L11.1331 14.033L11.1875 14.0226L11.2376 14.0098L11.2846 14.003L11.3244 13.9994L11.3079 14.0134L11.2205 14.08L11.1875 14.1033L11.2303 14.1143L11.2675 14.121L11.1881 14.2114L11.1673 14.2383L11.1936 14.2487L11.2205 14.256L11.251 14.2628H11.3115L11.3714 14.2493L11.3953 14.2353L11.4228 14.2493L11.4496 14.2597C11.4668 14.2646 11.4845 14.2695 11.5022 14.2732C11.5438 14.2774 11.5853 14.2823 11.6275 14.286H11.8805M11.5743 13.2642L11.5444 13.3247L11.5101 13.4023C11.4926 13.4339 11.476 13.4661 11.4606 13.4989L11.4435 13.516L11.4038 13.4824L11.3598 13.4518L11.3128 13.428L11.2633 13.4084L11.1551 13.3809L11.1019 13.3712C11.0438 13.3644 10.9855 13.3589 10.9271 13.3547C10.8498 13.3534 10.7726 13.3498 10.6955 13.3437L10.588 13.3308L10.5275 13.3204L10.4706 13.3076L10.4108 13.2868L10.36 13.2605L10.3228 13.2361L10.2458 13.1793C10.1333 13.0735 10.0221 12.9666 9.90659 12.8633L9.83998 12.8169L9.80942 12.8034L9.77765 12.7937L9.72081 12.7808C9.68762 12.769 9.65421 12.7578 9.62059 12.7472C9.5893 12.7321 9.55772 12.7177 9.52587 12.7038C9.47045 12.6695 9.41681 12.6324 9.36515 12.5926L9.33154 12.5614L9.26492 12.4948L9.20076 12.4245C9.09503 12.2956 8.99542 12.1624 8.89215 12.0316C8.84276 11.9792 8.79244 11.9276 8.7412 11.877L8.69781 11.8373L8.65381 11.8006L8.55726 11.7303L8.54748 11.7334L8.53648 11.7438L8.52609 11.7572C8.51998 11.7725 8.51509 11.7884 8.5102 11.8043L8.50653 11.8177L8.48209 11.8067L8.46192 11.7963L8.43748 11.7859L8.41731 11.7792H8.37392L8.35009 11.7859L8.32687 11.7963C8.3452 11.8195 8.36292 11.8428 8.38004 11.8666L8.40998 11.9137L8.46437 12.0175L8.48392 12.0683L8.49126 12.0952L8.49859 12.1153L8.50165 12.1385V12.1581H8.32076L8.34704 12.1984C8.3672 12.2259 8.38859 12.2528 8.40998 12.2791L8.5212 12.3903L8.55848 12.4203L8.5927 12.4441C8.56363 12.4472 8.53449 12.4496 8.50531 12.4514L8.41731 12.4612L8.44726 12.4887C8.47353 12.507 8.4992 12.526 8.52487 12.5455L8.56826 12.5755L8.61226 12.6024L8.65565 12.6262L8.69598 12.6397L8.73326 12.6494L8.7632 12.6562L8.77298 12.6598L8.78031 12.6672L8.78276 12.6702V12.683L8.77298 12.7105L8.77054 12.7301L8.76626 12.7435V12.7533L8.77054 12.7704L8.77298 12.7839L8.78031 12.79L8.79009 12.7973L8.80292 12.804L8.82003 12.8077L8.85426 12.8212L8.87076 12.8273L8.8842 12.8377L8.88726 12.8413V12.848L8.8842 12.8517L8.85731 12.8713L8.84387 12.8847L8.83042 12.9012V12.9153L8.82737 12.9287L8.83409 12.9648L8.95142 13.0051L8.97831 13.0112L9.0052 13.0222L9.02537 13.0326L9.04248 13.043L8.93126 13.1304L8.9612 13.1573L8.99848 13.1774L9.04553 13.2007C9.07915 13.2129 9.11276 13.2239 9.14698 13.2349L9.19709 13.2447L9.24109 13.255H9.28081L9.24354 13.2819L9.19648 13.3119L9.14637 13.3394L9.10909 13.3663L9.1427 13.3895C9.24476 13.442 9.34926 13.4909 9.45559 13.5343C9.64137 13.6101 9.83142 13.6761 10.0227 13.7354C10.0655 13.7458 10.1076 13.7568 10.1498 13.769L10.2036 13.7794L10.0954 13.769C10.0282 13.7603 9.96115 13.7501 9.89437 13.7384L9.80026 13.7183L9.61509 13.6651L9.52831 13.6345C9.29609 13.5441 9.06937 13.4402 8.83653 13.3522L8.85365 13.3424L8.9007 13.3253L8.93065 13.3186C8.97159 13.3064 9.01131 13.2929 9.05165 13.2783C8.97163 13.2661 8.89195 13.2519 8.8127 13.2355C8.77163 13.2221 8.73027 13.2097 8.68865 13.1982L8.66481 13.1878L8.64465 13.1774L8.62815 13.1664L8.61715 13.1567V13.1536L8.62081 13.1499L8.6312 13.1463L8.64098 13.1395L8.66787 13.1292L8.7852 13.0949L8.85304 13.0717C8.75587 13.0534 8.65809 13.0369 8.56031 13.0216L8.51326 13.0106L8.47598 12.9978L8.46253 12.9904L8.4497 12.98L8.4387 12.9739L8.43198 12.9629L8.44237 12.9562L8.47231 12.9495C8.50348 12.9446 8.53526 12.9391 8.56642 12.933L8.6202 12.9263C8.65076 12.9177 8.6807 12.9085 8.71065 12.8988L8.7247 12.889L8.73815 12.878L8.68498 12.8578L8.65076 12.8517L8.61715 12.8444L8.46315 12.8242L8.42281 12.8144L8.38553 12.8071L8.31159 12.7808L8.27737 12.7637L8.24987 12.7442L8.22298 12.7203L8.20281 12.6904L8.21015 12.6867L8.22298 12.683H8.24009L8.26698 12.6867L8.3947 12.6934L8.46926 12.7008H8.56276L8.58904 12.6971L8.60981 12.6904L8.62326 12.683C8.56003 12.6573 8.49728 12.6304 8.43504 12.6024C8.39384 12.5815 8.35228 12.5613 8.31037 12.5419L8.18326 12.4753L8.12276 12.438C8.08549 12.4117 8.04862 12.3848 8.01215 12.3573L7.96509 12.317L7.94431 12.2938L7.92353 12.2736L7.9107 12.2534L7.89665 12.2296L7.8832 12.21L7.87587 12.1868L7.87037 12.1434H7.89298L7.91987 12.1465L7.94676 12.1575L7.97365 12.1673L8.02681 12.2009L8.08731 12.2345L8.1142 12.2516L8.14415 12.2675L8.17409 12.2809L8.20098 12.2913L8.23092 12.2987L8.25781 12.3017H8.28837L8.31465 12.2913L8.2352 12.2302C8.16938 12.1756 8.10439 12.12 8.04026 12.0634C7.9339 11.9621 7.83175 11.8565 7.73409 11.7468L7.69131 11.69L7.64731 11.6362C7.62319 11.6017 7.59956 11.5669 7.57642 11.5317L7.57031 11.5183V11.495L7.57337 11.4847L7.57642 11.4749L7.58681 11.4682L7.59659 11.4578L7.60759 11.4504L7.62042 11.4468L7.63387 11.4443H7.66076L7.67726 11.4468L7.69192 11.4504L7.70476 11.4608C7.77748 11.5329 7.84898 11.6057 7.91926 11.6796C7.99687 11.7542 8.07753 11.8263 8.16126 11.8947L8.23826 11.9442L8.27798 11.965L8.31526 11.9778L8.28898 11.9613L8.2187 11.891C8.13254 11.792 8.05065 11.6894 7.96998 11.5855C7.93445 11.5367 7.89962 11.4874 7.86548 11.4376C7.83503 11.3889 7.80366 11.3408 7.77137 11.2934C7.74577 11.2514 7.72112 11.2088 7.69742 11.1657C7.6838 11.1308 7.66953 11.0961 7.65465 11.0618L7.65037 11.0453V11.0178L7.65465 11.008L7.66748 10.9878L7.67481 10.9805L7.6852 10.9744L7.72859 10.9603H7.77565L7.78909 10.9634L7.79887 10.967L7.81231 10.9744L7.84959 11.008L7.93698 11.1192C8.00542 11.2243 8.07754 11.327 8.15209 11.4278L8.23154 11.5287L8.27553 11.572L8.32259 11.6124C8.26906 11.5108 8.21772 11.4081 8.16859 11.3044C8.1478 11.2566 8.12763 11.2085 8.10809 11.1602L8.0812 11.0862C8.067 11.0352 8.05131 10.9847 8.03415 10.9347L8.01765 10.8607L8.00542 10.7855L7.99809 10.7153L7.99504 10.6487L7.99809 10.615L8.00237 10.5845L8.00542 10.5539L8.01215 10.524L8.01887 10.513L8.02254 10.5032L8.03231 10.4922L8.03903 10.4861L8.06226 10.4757L8.08609 10.4696H8.10931L8.12948 10.4733L8.13926 10.4757L8.14659 10.4794L8.15026 10.4867L8.15392 10.4965C8.21137 10.6841 8.25842 10.8748 8.30792 11.0648C8.32748 11.118 8.34765 11.1705 8.36903 11.2225L8.39226 11.2726L8.41915 11.3197L8.44909 11.3667L8.42953 11.2689C8.42186 11.2131 8.4129 11.1575 8.40265 11.1021C8.39593 11.0372 8.39043 10.9722 8.38615 10.9072L8.39287 10.8198L8.39959 10.7855L8.40998 10.7593L8.42342 10.7391L8.43015 10.7318L8.43992 10.725L8.4497 10.722H8.48026L8.50776 10.7318L8.53403 10.7452L8.58109 10.9567C8.5982 11.0208 8.61715 11.085 8.63792 11.1479C8.67215 11.2439 8.70942 11.3392 8.74915 11.4333L8.7962 11.5305L8.86342 11.6588L8.93676 11.7859L9.01803 11.9069L9.10481 12.0273L9.18609 12.1282C9.24231 12.1917 9.29915 12.2547 9.3572 12.3164C9.4177 12.3757 9.47942 12.4337 9.54237 12.4905L9.63953 12.5718C9.72876 12.6415 9.82042 12.7075 9.91515 12.7698C9.98909 12.8138 10.0643 12.8566 10.14 12.8975L10.371 13.0088C10.4884 13.0552 10.6069 13.098 10.7267 13.1359C10.844 13.167 10.9632 13.1939 11.083 13.2165C11.2437 13.2422 11.4087 13.2575 11.5743 13.2642Z" fill="#FFCC4D"/>
<path d="M2.11272 17.4301C2.11272 17.4301 1.96789 17.5505 1.919 17.49C1.84017 17.3922 2.16161 16.9039 2.16161 16.7316C2.16161 16.4499 1.97278 16.3716 1.74056 16.3319C1.58411 16.305 1.3305 16.3435 1.3305 16.3435C1.37817 16.4077 1.40933 16.4279 1.49 16.4315C1.43442 16.4608 1.38807 16.5049 1.35612 16.559C1.32418 16.613 1.3079 16.6749 1.30911 16.7377C1.30911 16.9797 1.40933 17.0799 1.40933 17.3543C1.40933 17.5065 1.28467 17.6996 1.28467 17.6996C1.50467 17.6776 1.61467 17.4741 1.55233 17.3103C1.56917 17.3072 1.58653 17.3081 1.60291 17.3131C1.6193 17.3181 1.63423 17.327 1.64645 17.339C1.66233 17.2944 1.63728 17.2413 1.60306 17.1966C1.63056 17.1826 1.65072 17.1911 1.69411 17.1997C1.68983 17.1533 1.66172 17.1044 1.59389 17.0579C1.79189 17.1086 1.9135 16.9711 1.9135 16.8269C1.9135 16.7169 1.83711 16.6387 1.76195 16.6387C1.73348 16.6396 1.7058 16.6483 1.68189 16.6638C1.66783 16.6344 1.67517 16.5941 1.68922 16.5641C1.63483 16.5782 1.6 16.6106 1.62506 16.679C1.60642 16.6793 1.58805 16.6835 1.57111 16.6913C1.55417 16.6991 1.53904 16.7103 1.52667 16.7243C1.53836 16.7389 1.55339 16.7506 1.57051 16.7582C1.58763 16.7659 1.60633 16.7693 1.62506 16.7683C1.5945 16.8318 1.62872 16.8679 1.67822 16.896C1.67822 16.896 1.64645 16.7683 1.72772 16.7683C1.76439 16.7683 1.79739 16.7811 1.79739 16.8343C1.79739 16.8801 1.75645 16.9449 1.66233 16.9412C1.56761 16.9369 1.49122 16.8758 1.49122 16.7261C1.49122 16.5861 1.60306 16.5171 1.75033 16.5128C1.88356 16.5085 1.98378 16.5806 1.98378 16.7181C1.98378 16.9003 1.71978 17.317 1.71978 17.4796C1.71978 17.6018 1.82917 17.6696 1.93672 17.6696C2.07606 17.6696 2.19339 17.5315 2.19339 17.5315L2.11272 17.4301ZM2.08217 14.1289C2.08217 13.8245 2.35595 13.6675 2.57106 13.6675C2.86072 13.6675 3.01533 13.841 3.01533 14.0671C3.01533 14.1967 2.9915 14.2774 2.93222 14.4002L2.26795 15.7795C2.24363 15.8374 2.23297 15.9001 2.23678 15.9628C2.23678 16.0863 2.35717 16.1877 2.48306 16.1908C2.59733 16.1938 2.72261 16.0838 2.72261 15.9585C2.72261 15.8064 2.64439 15.7391 2.56311 15.7391C2.4635 15.7391 2.42378 15.7795 2.42378 15.8498C2.42378 15.8993 2.44761 15.92 2.48122 15.92C2.56678 15.92 2.54295 15.8051 2.54295 15.8051C2.55433 15.8075 2.56506 15.8124 2.57436 15.8193C2.58367 15.8263 2.59134 15.8352 2.59682 15.8455C2.60229 15.8558 2.60545 15.8671 2.60607 15.8787C2.60669 15.8903 2.60475 15.9019 2.60039 15.9127C2.63239 15.9194 2.66135 15.9364 2.68289 15.961C2.66088 15.9844 2.63199 16.0003 2.60039 16.0062C2.62056 16.0722 2.59367 16.1046 2.53622 16.1186C2.54613 16.0964 2.5489 16.0716 2.54417 16.0478C2.45311 16.0734 2.31378 16.0331 2.31378 15.8754C2.31378 15.719 2.42195 15.5876 2.62545 15.62C2.57656 15.598 2.55272 15.5509 2.54783 15.4971C2.5845 15.5124 2.62545 15.5143 2.62545 15.5143C2.60161 15.4727 2.56861 15.4366 2.56983 15.3535C2.60772 15.3713 2.64256 15.4024 2.69083 15.3823C2.61506 15.2338 2.70795 15.0296 2.94506 14.9801C2.86457 15.0677 2.81872 15.1815 2.81611 15.3004C2.81611 15.6548 2.91511 15.7135 2.91511 15.9591C2.91347 16.0164 2.89834 16.0725 2.87094 16.1228C2.84355 16.1732 2.80466 16.2163 2.75745 16.2488V16.2445C2.82589 16.2629 2.8705 16.2977 2.89617 16.3435C2.73789 16.3881 2.5075 16.3875 2.38467 16.3393C2.32899 16.3312 2.27581 16.3108 2.22898 16.2796C2.18215 16.2485 2.14286 16.2072 2.11395 16.159C2.08407 16.0901 2.06866 16.0159 2.06866 15.9408C2.06866 15.8658 2.08407 15.7915 2.11395 15.7226C2.20806 15.5265 2.65172 14.586 2.78983 14.2896C2.8203 14.2267 2.83637 14.1578 2.83689 14.0879C2.83689 13.9076 2.67128 13.8441 2.57717 13.8441C2.46411 13.8441 2.34922 13.9309 2.34922 14.0372C2.34922 14.1056 2.3865 14.146 2.43906 14.146C2.56678 14.146 2.55883 14.0378 2.53317 13.9694C2.612 14.006 2.65845 14.0684 2.64561 14.1356C2.69083 14.1417 2.73361 14.1631 2.77272 14.2071C2.74156 14.2474 2.70367 14.2768 2.64561 14.2774C2.67128 14.3813 2.60161 14.4253 2.53317 14.4491C2.55456 14.3733 2.56861 14.2847 2.43906 14.2847C2.34433 14.2847 2.26978 14.2682 2.22639 14.2065C2.22333 14.289 2.21539 14.6129 2.21539 14.6129C2.2105 14.7351 2.37856 14.7314 2.4855 14.6954C2.44456 14.8359 2.36206 14.9123 2.16956 14.8928C2.19904 14.9041 2.22422 14.9244 2.24154 14.9509C2.25886 14.9773 2.26746 15.0085 2.26611 15.04C2.26611 15.1549 2.17322 15.2814 2.11272 15.3193L2.08217 14.1289Z" fill="#FFCC4D"/>
<path d="M2.14264 14.1289C2.14264 13.8246 1.86886 13.6675 1.65375 13.6675C1.36408 13.6675 1.20947 13.8411 1.20947 14.0672C1.20947 14.1968 1.23331 14.2774 1.29258 14.4003L1.95686 15.7795C1.98097 15.8375 1.99142 15.9002 1.98742 15.9629C1.98742 16.0863 1.86703 16.1878 1.74175 16.1908C1.62686 16.1939 1.50219 16.0839 1.50219 15.9586C1.50219 15.8064 1.58042 15.7392 1.66169 15.7392C1.76131 15.7392 1.80103 15.7795 1.80103 15.8498C1.80103 15.8993 1.77719 15.9201 1.74358 15.9201C1.65803 15.9201 1.68186 15.8052 1.68186 15.8052C1.67048 15.8076 1.65975 15.8124 1.65044 15.8194C1.64113 15.8264 1.63347 15.8353 1.62799 15.8455C1.62251 15.8558 1.61935 15.8671 1.61874 15.8788C1.61812 15.8904 1.62006 15.902 1.62442 15.9128C1.59241 15.9195 1.56346 15.9364 1.54192 15.961C1.56392 15.9845 1.59282 16.0003 1.62442 16.0063C1.60486 16.0723 1.63175 16.1046 1.68919 16.1181C1.67929 16.0958 1.67652 16.0711 1.68125 16.0472C1.77231 16.0729 1.91164 16.0325 1.91164 15.8749C1.91164 15.7184 1.80347 15.587 1.60058 15.6194C1.64886 15.5974 1.67331 15.5504 1.67758 15.4966C1.65294 15.5062 1.62697 15.512 1.60058 15.5137C1.62381 15.4721 1.65681 15.4361 1.65558 15.353C1.61769 15.3707 1.58347 15.4019 1.53458 15.3817C1.61036 15.2332 1.51747 15.0291 1.28036 14.9796C1.36085 15.0671 1.40669 15.1809 1.40931 15.2998C1.40931 15.6543 1.31092 15.7129 1.31092 15.9586C1.31092 16.0613 1.36408 16.1731 1.46858 16.2483V16.244C1.43982 16.2498 1.4126 16.2617 1.38871 16.2787C1.36481 16.2958 1.34476 16.3177 1.32986 16.343C1.48814 16.3876 1.71792 16.387 1.84136 16.3387C1.89704 16.3306 1.95022 16.3103 1.99705 16.2791C2.04388 16.2479 2.08317 16.2067 2.11208 16.1584C2.14196 16.0896 2.15737 16.0153 2.15737 15.9403C2.15737 15.8652 2.14196 15.7909 2.11208 15.7221C2.01797 15.5259 1.57431 14.5854 1.43619 14.289C1.40573 14.2261 1.38965 14.1572 1.38914 14.0874C1.38914 13.9071 1.55475 13.8435 1.64886 13.8435C1.76192 13.8435 1.87681 13.9303 1.87681 14.0366C1.87681 14.1051 1.83953 14.1454 1.78697 14.1454C1.65925 14.1454 1.66719 14.0373 1.69225 13.9688C1.61342 14.0055 1.56697 14.0678 1.57981 14.135C1.53013 14.1426 1.48493 14.168 1.45269 14.2065C1.48386 14.2469 1.52175 14.2762 1.57981 14.2768C1.55414 14.3807 1.62381 14.4247 1.69225 14.4485C1.67086 14.3728 1.65681 14.2841 1.78697 14.2841C1.88169 14.2841 1.95625 14.2676 1.99964 14.2059L2.01064 14.6123C2.01553 14.7345 1.84686 14.7309 1.73992 14.6948C1.78025 14.8348 1.86336 14.9111 2.05525 14.8916C2.02577 14.9029 2.00059 14.9233 1.98327 14.9497C1.96595 14.9761 1.95735 15.0073 1.95869 15.0389C1.95869 15.1538 2.05097 15.2803 2.11208 15.3181L2.14264 14.1289ZM2.11269 17.4301C2.11269 17.4301 2.25753 17.5505 2.30642 17.49C2.38525 17.3923 2.06381 16.904 2.06381 16.7316C2.06381 16.4499 2.25264 16.3717 2.48486 16.332C2.64131 16.3051 2.89553 16.3436 2.89553 16.3436C2.84725 16.4078 2.81669 16.4279 2.73603 16.4316C2.79156 16.4609 2.83788 16.505 2.86982 16.5591C2.90175 16.6131 2.91806 16.675 2.91692 16.7378C2.91692 16.9798 2.81669 17.08 2.81669 17.3544C2.81669 17.5065 2.94136 17.6996 2.94136 17.6996C2.72136 17.6776 2.61136 17.4741 2.67369 17.3104C2.65685 17.3073 2.63953 17.3083 2.62316 17.3133C2.60679 17.3183 2.59185 17.3272 2.57958 17.3391C2.56369 17.2945 2.58936 17.2413 2.62297 17.1967C2.59547 17.1826 2.57531 17.1912 2.53192 17.1998C2.53619 17.1533 2.56369 17.1044 2.63214 17.058C2.43414 17.1087 2.31253 16.9712 2.31253 16.827C2.31253 16.717 2.38892 16.6388 2.46408 16.6388C2.48853 16.6388 2.52397 16.6491 2.54414 16.6638C2.55819 16.6345 2.55086 16.5941 2.53619 16.5642C2.59119 16.5783 2.62542 16.6106 2.60097 16.6791C2.61961 16.6794 2.63797 16.6836 2.6549 16.6914C2.67183 16.6992 2.68697 16.7104 2.69936 16.7243C2.68767 16.739 2.67264 16.7506 2.65552 16.7583C2.6384 16.7659 2.6197 16.7694 2.60097 16.7683C2.63153 16.8319 2.59731 16.8679 2.54781 16.896C2.54781 16.896 2.57958 16.7683 2.49831 16.7683C2.46164 16.7683 2.42864 16.7811 2.42864 16.8343C2.42864 16.8801 2.46958 16.9449 2.56369 16.9413C2.65781 16.937 2.73419 16.8759 2.73419 16.7261C2.73419 16.5862 2.62236 16.5171 2.47508 16.5129C2.34186 16.5086 2.24164 16.5807 2.24164 16.7182C2.24164 16.9003 2.50564 17.3171 2.50564 17.4796C2.50564 17.6019 2.39625 17.6697 2.28869 17.6697C2.14936 17.6697 2.03203 17.5316 2.03203 17.5316L2.11269 17.4301ZM2.08214 8.78597C2.08214 8.48042 2.35592 8.32397 2.57103 8.32397C2.86069 8.32397 3.01531 8.49753 3.01531 8.72425C3.01531 8.8532 2.99147 8.93386 2.93219 9.0567L2.26792 10.4366C2.24357 10.4943 2.2329 10.5568 2.23675 10.6193C2.23675 10.7434 2.35714 10.8442 2.48303 10.8479C2.59731 10.8503 2.72258 10.7403 2.72258 10.6156C2.72258 10.4641 2.64436 10.3963 2.56308 10.3963C2.46347 10.3963 2.42375 10.4372 2.42375 10.5075C2.42375 10.5558 2.44758 10.5771 2.48119 10.5771C2.56675 10.5771 2.54292 10.4623 2.54292 10.4623C2.5542 10.4646 2.56485 10.4693 2.5741 10.4762C2.58335 10.4831 2.59098 10.4919 2.59646 10.502C2.60193 10.5121 2.60512 10.5234 2.60579 10.5349C2.60647 10.5464 2.60462 10.5579 2.60036 10.5686C2.6324 10.5756 2.66132 10.5927 2.68286 10.6175C2.66076 10.6409 2.63194 10.6569 2.60036 10.6633C2.62053 10.7293 2.59364 10.7611 2.53619 10.7751C2.54614 10.7529 2.54891 10.7281 2.54414 10.7043C2.45308 10.7299 2.31375 10.6896 2.31375 10.5319C2.31375 10.3761 2.42192 10.2447 2.62542 10.2771C2.57653 10.2539 2.55269 10.2068 2.54781 10.1543C2.58447 10.1689 2.62542 10.1701 2.62542 10.1701C2.60158 10.1286 2.56858 10.0925 2.56981 10.01C2.60769 10.0271 2.64253 10.0589 2.69081 10.0388C2.61503 9.88964 2.70792 9.68492 2.94503 9.63664C2.86473 9.72427 2.81892 9.83804 2.81608 9.95686C2.81608 10.3107 2.91508 10.37 2.91508 10.6163C2.91508 10.7189 2.86192 10.8301 2.75742 10.9059V10.9016C2.82464 10.92 2.86864 10.9536 2.89492 11C2.73664 11.0453 2.50625 11.044 2.38342 10.9958C2.32778 10.9876 2.27464 10.9671 2.22784 10.936C2.18103 10.9048 2.1417 10.8637 2.11269 10.8155C2.08282 10.7468 2.0674 10.6728 2.0674 10.5979C2.0674 10.5231 2.08282 10.449 2.11269 10.3804C2.20681 10.1836 2.65047 9.24309 2.78858 8.9467C2.81873 8.88369 2.83478 8.81487 2.83564 8.74503C2.83564 8.56414 2.67003 8.50059 2.57592 8.50059C2.46286 8.50059 2.34797 8.58675 2.34797 8.69309C2.34797 8.76153 2.38525 8.80247 2.43781 8.80247C2.56553 8.80247 2.55758 8.6937 2.53192 8.62586C2.61075 8.66131 2.65719 8.72486 2.64436 8.79209C2.68958 8.7982 2.73236 8.81897 2.77147 8.8642C2.74031 8.90331 2.70242 8.93264 2.64436 8.93386C2.67003 9.03836 2.60036 9.08236 2.53192 9.1062C2.55331 9.03042 2.56736 8.94242 2.43781 8.94242C2.34308 8.94242 2.26853 8.92592 2.22514 8.86481C2.22208 8.9467 2.21414 9.2712 2.21414 9.2712C2.20925 9.39281 2.37731 9.38975 2.48425 9.35309C2.44453 9.49364 2.36203 9.56942 2.16953 9.54986C2.19906 9.56133 2.22426 9.58176 2.24158 9.60829C2.25889 9.63482 2.26747 9.6661 2.26608 9.69775C2.26608 9.81203 2.17319 9.93914 2.11269 9.97642L2.08214 8.78597Z" fill="#FFCC4D"/>
<path d="M2.14264 8.78597C2.14264 8.48042 1.86886 8.32397 1.65375 8.32397C1.36408 8.32397 1.20947 8.49753 1.20947 8.72425C1.20947 8.8532 1.23331 8.93386 1.29258 9.0567L1.95686 10.4366C1.98008 10.4849 1.98742 10.5393 1.98742 10.6193C1.98742 10.7434 1.86703 10.8442 1.74175 10.8479C1.62686 10.8503 1.50219 10.7403 1.50219 10.6156C1.50219 10.4641 1.58042 10.3963 1.66169 10.3963C1.76131 10.3963 1.80103 10.4372 1.80103 10.5075C1.80103 10.5558 1.77719 10.5771 1.74358 10.5771C1.65803 10.5771 1.68186 10.4623 1.68186 10.4623C1.67052 10.4645 1.65981 10.4692 1.6505 10.476C1.64119 10.4829 1.63351 10.4917 1.62802 10.5018C1.62253 10.512 1.61935 10.5233 1.61873 10.5348C1.61811 10.5464 1.62005 10.5579 1.62442 10.5686C1.59238 10.5756 1.56346 10.5927 1.54192 10.6175C1.56402 10.6409 1.59284 10.6569 1.62442 10.6633C1.60486 10.7293 1.63114 10.7611 1.68858 10.7751C1.67864 10.7529 1.67587 10.7281 1.68064 10.7043C1.77169 10.7299 1.91103 10.6896 1.91103 10.5319C1.91103 10.3761 1.80286 10.2447 1.59997 10.2771C1.64825 10.2539 1.67269 10.2068 1.67697 10.1543C1.64031 10.1689 1.59997 10.1701 1.59997 10.1701C1.62319 10.1286 1.65619 10.0925 1.65497 10.01C1.61708 10.0271 1.58286 10.0589 1.53397 10.0388C1.60975 9.88964 1.51686 9.68492 1.27975 9.63664C1.36005 9.72427 1.40586 9.83804 1.40869 9.95686C1.40869 10.3107 1.31031 10.37 1.31031 10.6163C1.31031 10.7189 1.36347 10.8301 1.46797 10.9059V10.9016C1.40014 10.92 1.35553 10.9536 1.33047 11C1.48875 11.0453 1.71853 11.044 1.84197 10.9958C1.89761 10.9876 1.95074 10.9671 1.99755 10.936C2.04436 10.9048 2.08369 10.8637 2.11269 10.8155C2.14257 10.7468 2.15799 10.6728 2.15799 10.5979C2.15799 10.5231 2.14257 10.449 2.11269 10.3804C2.01858 10.1836 1.57492 9.24309 1.43681 8.9467C1.40639 8.884 1.39032 8.81532 1.38975 8.74564C1.38975 8.56475 1.55536 8.5012 1.64947 8.5012C1.76253 8.5012 1.87742 8.58736 1.87742 8.6937C1.87742 8.76214 1.84014 8.80309 1.78758 8.80309C1.65986 8.80309 1.66781 8.69431 1.69286 8.62647C1.61403 8.66192 1.56758 8.72547 1.58042 8.7927C1.53052 8.8 1.48517 8.82572 1.45331 8.86481C1.48447 8.90392 1.52236 8.93325 1.58042 8.93447C1.55475 9.03897 1.62442 9.08297 1.69286 9.10681C1.67147 9.03103 1.65742 8.94303 1.78758 8.94303C1.88231 8.94303 1.95686 8.92653 2.00025 8.86542L2.01064 9.27059C2.01553 9.3922 1.84686 9.38914 1.73992 9.35247C1.78025 9.49303 1.86336 9.56881 2.05525 9.54986C2.02572 9.56133 2.00052 9.58176 1.9832 9.60829C1.96588 9.63482 1.95731 9.6661 1.95869 9.69775C1.95869 9.81203 2.05097 9.93914 2.11208 9.97642L2.14264 8.78597Z" fill="#FFCC4D"/>
<path d="M2.14269 7.87048C2.14269 8.17543 1.86892 8.33248 1.65381 8.33248C1.36414 8.33248 1.20953 8.15893 1.20953 7.93159C1.20953 7.80326 1.23336 7.72259 1.29264 7.59915L1.95692 6.21926C1.98101 6.16151 1.99147 6.09899 1.98747 6.03654C1.98747 5.91309 1.86708 5.81165 1.74181 5.80859C1.62692 5.80615 1.50225 5.91554 1.50225 6.04082C1.50225 6.19298 1.58047 6.26021 1.66175 6.26021C1.76136 6.26021 1.80108 6.21926 1.80108 6.14898C1.80108 6.10009 1.77725 6.07932 1.74364 6.07932C1.65808 6.07932 1.68192 6.19421 1.68192 6.19421C1.67055 6.19191 1.65983 6.18714 1.65053 6.18023C1.64122 6.17332 1.63355 6.16445 1.62806 6.15423C1.62257 6.14402 1.61941 6.13272 1.61879 6.12115C1.61817 6.10957 1.62011 6.098 1.62447 6.08726C1.5923 6.08097 1.56322 6.06395 1.54197 6.03898C1.56428 6.01593 1.59304 6.00016 1.62447 5.99376C1.60492 5.92776 1.63181 5.89598 1.68925 5.88193C1.67931 5.90416 1.67653 5.92894 1.68131 5.95282C1.77236 5.92715 1.91169 5.96871 1.91169 6.12515C1.91169 6.28098 1.80353 6.41237 1.60064 6.37998C1.64892 6.40321 1.67336 6.45026 1.67764 6.50282C1.65284 6.49394 1.62692 6.48859 1.60064 6.48693C1.62386 6.52848 1.65686 6.56454 1.65564 6.64704C1.61775 6.62993 1.58353 6.59815 1.53464 6.61832C1.61042 6.76743 1.51753 6.97215 1.28042 7.02104C1.36071 6.93316 1.40651 6.81921 1.40936 6.70021C1.40936 6.34698 1.31097 6.28709 1.31097 6.04143C1.31097 5.93876 1.36414 5.82754 1.46864 5.75176V5.75604C1.43994 5.74999 1.41283 5.738 1.38905 5.72084C1.36526 5.70369 1.34533 5.68175 1.33053 5.65643C1.48881 5.61182 1.71858 5.61243 1.84203 5.66132C1.89776 5.66945 1.95098 5.68991 1.99781 5.7212C2.04464 5.75249 2.08391 5.79383 2.11275 5.84221C2.14266 5.91084 2.1581 5.9849 2.1581 6.05976C2.1581 6.13463 2.14266 6.20869 2.11275 6.27732C2.01864 6.47409 1.57497 7.41459 1.43686 7.71037C1.40639 7.77305 1.39031 7.84174 1.38981 7.91143C1.38981 8.09293 1.55542 8.15587 1.64953 8.15587C1.76258 8.15587 1.87747 8.06971 1.87747 7.96276C1.87747 7.89493 1.84019 7.85337 1.78764 7.85337C1.65992 7.85337 1.66786 7.96154 1.69292 8.02998C1.61408 7.99454 1.56764 7.93098 1.58047 7.86376C1.53065 7.85624 1.48538 7.83055 1.45336 7.79165C1.48453 7.75254 1.52242 7.72259 1.58047 7.72198C1.55481 7.61809 1.62447 7.57348 1.69292 7.54904C1.67153 7.62543 1.65747 7.71404 1.78764 7.71404C1.88236 7.71404 1.95692 7.72993 2.00031 7.79165L2.01131 7.38465C2.01619 7.26304 1.84753 7.26671 1.74058 7.30276C1.78092 7.16221 1.86403 7.08643 2.05592 7.10537C2.02638 7.09391 2.00119 7.07347 1.98387 7.04695C1.96655 7.02042 1.95798 6.98913 1.95936 6.95748C1.95936 6.84321 2.05164 6.71609 2.11275 6.67882L2.14269 7.87048ZM2.14269 13.214C2.14269 13.519 1.86892 13.6754 1.65381 13.6754C1.36414 13.6754 1.20953 13.5025 1.20953 13.2758C1.20805 13.1596 1.23668 13.0451 1.29264 12.9433L1.95692 11.5634C1.98101 11.5057 1.99147 11.4432 1.98747 11.3807C1.98747 11.2566 1.86708 11.1558 1.74181 11.1528C1.62692 11.1497 1.50225 11.2597 1.50225 11.3844C1.50225 11.5359 1.58047 11.6038 1.66175 11.6038C1.76136 11.6038 1.80108 11.5628 1.80108 11.4925C1.80108 11.4443 1.77725 11.4235 1.74364 11.4235C1.65808 11.4235 1.68192 11.5384 1.68192 11.5384C1.67061 11.536 1.65996 11.5312 1.65071 11.5242C1.64146 11.5173 1.63383 11.5084 1.62836 11.4982C1.62289 11.4881 1.61971 11.4768 1.61904 11.4653C1.61837 11.4537 1.62022 11.4422 1.62447 11.4314C1.59224 11.4249 1.56315 11.4077 1.54197 11.3825C1.56413 11.3593 1.59296 11.3435 1.62447 11.3373C1.60492 11.2707 1.63119 11.2389 1.68864 11.2249C1.6787 11.2471 1.67592 11.2719 1.68069 11.2958C1.77175 11.2701 1.91108 11.311 1.91108 11.4681C1.91108 11.6239 1.80292 11.7547 1.60003 11.7229C1.64831 11.7468 1.67275 11.7932 1.67703 11.8464C1.64036 11.8323 1.60003 11.8299 1.60003 11.8299C1.62325 11.8714 1.65625 11.9081 1.65503 11.99C1.61714 11.9729 1.58292 11.9411 1.53403 11.9613C1.60981 12.1098 1.51692 12.3157 1.27981 12.3634C1.3602 12.2758 1.40603 12.162 1.40875 12.0432C1.40875 11.6905 1.31036 11.63 1.31036 11.3844C1.31036 11.2811 1.36353 11.1699 1.46803 11.0947V11.0984C1.40019 11.0806 1.35558 11.047 1.33053 11C1.48881 10.9554 1.71858 10.956 1.84203 11.0049C1.89767 11.0131 1.9508 11.0335 1.99761 11.0646C2.04442 11.0958 2.08374 11.137 2.11275 11.1851C2.14263 11.2538 2.15804 11.3278 2.15804 11.4027C2.15804 11.4776 2.14263 11.5516 2.11275 11.6203C2.01864 11.817 1.57497 12.7575 1.43686 13.0539C1.40631 13.1166 1.39023 13.1853 1.38981 13.255C1.38981 13.4359 1.55542 13.4988 1.64953 13.4988C1.76258 13.4988 1.87747 13.4126 1.87747 13.3057C1.87747 13.2391 1.84019 13.1975 1.78764 13.1975C1.65992 13.1975 1.66786 13.3057 1.69292 13.3735C1.61408 13.3381 1.56764 13.2739 1.58047 13.2073C1.53061 13.2003 1.48521 13.1748 1.45336 13.1358C1.46785 13.1152 1.48682 13.0982 1.50883 13.0861C1.53085 13.0739 1.55535 13.0669 1.58047 13.0655C1.55481 12.9616 1.62447 12.9183 1.69292 12.8938C1.67153 12.9702 1.65747 13.0582 1.78764 13.0582C1.88236 13.0582 1.95692 13.0741 2.00031 13.1364L2.01131 12.7294C2.01619 12.6084 1.84753 12.6115 1.74058 12.6475C1.78092 12.5076 1.86403 12.4318 2.05592 12.4508C2.02638 12.4393 2.00119 12.4189 1.98387 12.3923C1.96655 12.3658 1.95798 12.3345 1.95936 12.3029C1.95936 12.1886 2.05164 12.0621 2.11275 12.0242L2.14269 13.214Z" fill="#FFCC4D"/>
<path d="M2.08197 13.2141C2.08197 13.519 2.35575 13.6755 2.57086 13.6755C2.86053 13.6755 3.01514 13.5025 3.01514 13.2758C3.01662 13.1597 2.98799 13.0451 2.93203 12.9434L2.26775 11.5635C2.2434 11.5058 2.23274 11.4432 2.23658 11.3807C2.23658 11.2567 2.35697 11.1559 2.48286 11.1528C2.59714 11.1497 2.72242 11.2597 2.72242 11.3844C2.72242 11.536 2.64419 11.6038 2.56292 11.6038C2.46331 11.6038 2.42358 11.5629 2.42358 11.4926C2.42358 11.4443 2.44742 11.4235 2.48103 11.4235C2.56658 11.4235 2.54275 11.5384 2.54275 11.5384C2.55406 11.536 2.56471 11.5312 2.57396 11.5243C2.58321 11.5173 2.59084 11.5085 2.5963 11.4983C2.60177 11.4881 2.60496 11.4768 2.60563 11.4653C2.6063 11.4538 2.60445 11.4422 2.60019 11.4315C2.63243 11.425 2.66151 11.4077 2.68269 11.3826C2.66053 11.3593 2.63171 11.3435 2.60019 11.3374C2.62036 11.2707 2.59347 11.239 2.53603 11.2249C2.54764 11.2506 2.54764 11.2738 2.54397 11.2958C2.45292 11.2701 2.31358 11.3111 2.31358 11.4681C2.31358 11.624 2.42175 11.7547 2.62525 11.723C2.57636 11.7468 2.55253 11.7932 2.54764 11.8464C2.58431 11.8324 2.62525 11.8299 2.62525 11.8299C2.60142 11.8715 2.56842 11.9081 2.56964 11.99C2.60753 11.9729 2.64236 11.9411 2.69064 11.9613C2.61486 12.1098 2.70775 12.3157 2.94486 12.3634C2.86447 12.2758 2.81864 12.162 2.81592 12.0432C2.81592 11.6906 2.91492 11.6301 2.91492 11.3844C2.91337 11.3271 2.89828 11.271 2.87088 11.2206C2.84347 11.1703 2.80454 11.1272 2.75725 11.0947V11.0984C2.78604 11.0926 2.81329 11.0808 2.83719 11.0637C2.8611 11.0467 2.88113 11.0248 2.89597 10.9994C2.73769 10.9548 2.50731 10.9554 2.38447 11.0043C2.32883 11.0125 2.2757 11.0329 2.22889 11.0641C2.18208 11.0952 2.14276 11.1364 2.11375 11.1846C2.08387 11.2532 2.06845 11.3273 2.06845 11.4021C2.06845 11.477 2.08387 11.5511 2.11375 11.6197C2.20786 11.8165 2.65153 12.757 2.78964 13.0534C2.81897 13.1157 2.83669 13.1817 2.83669 13.2544C2.83669 13.4353 2.67108 13.4982 2.57697 13.4982C2.46392 13.4982 2.34903 13.4121 2.34903 13.3051C2.34903 13.2385 2.38631 13.197 2.43886 13.197C2.56658 13.197 2.55864 13.3051 2.53297 13.373C2.61181 13.3375 2.65825 13.2734 2.64542 13.2067C2.69536 13.2 2.74084 13.1744 2.77253 13.1352C2.75804 13.1147 2.73907 13.0977 2.71705 13.0855C2.69504 13.0733 2.67054 13.0663 2.64542 13.065C2.67108 12.9611 2.60142 12.9177 2.53297 12.8932C2.55436 12.9696 2.56842 13.0576 2.43886 13.0576C2.34414 13.0576 2.26958 13.0735 2.22619 13.1359C2.22314 13.054 2.21519 12.7289 2.21519 12.7289C2.21031 12.6079 2.37836 12.6109 2.48531 12.647C2.44436 12.507 2.36186 12.4312 2.16936 12.4502C2.19889 12.4387 2.22409 12.4183 2.24141 12.3918C2.25873 12.3652 2.2673 12.334 2.26592 12.3023C2.26592 12.188 2.17303 12.0615 2.11253 12.0236L2.08197 13.2141ZM2.11253 4.57053C2.11253 4.57053 2.25736 4.44892 2.30625 4.50942C2.38508 4.6078 2.06364 5.09608 2.06364 5.26842C2.06364 5.55075 2.25247 5.62714 2.48469 5.66747C2.64114 5.69497 2.89536 5.65647 2.89536 5.65647C2.84647 5.5923 2.81592 5.57336 2.73525 5.56847C2.79083 5.53955 2.83721 5.49567 2.86917 5.44179C2.90114 5.38791 2.9174 5.32616 2.91614 5.26353C2.91614 5.0203 2.81592 4.92008 2.81592 4.6463C2.81592 4.49414 2.94058 4.30042 2.94058 4.30042C2.72058 4.32303 2.61058 4.52653 2.67292 4.68969C2.65617 4.69279 2.63892 4.6918 2.62265 4.68679C2.60637 4.68179 2.59154 4.67293 2.57942 4.66097C2.56353 4.70619 2.58919 4.75875 2.62281 4.80397C2.59531 4.81864 2.57514 4.80947 2.53175 4.8003C2.53603 4.84736 2.56353 4.89625 2.63197 4.94269C2.43336 4.89136 2.31175 5.02947 2.31175 5.1743C2.31175 5.28369 2.38814 5.3613 2.46331 5.3613C2.48775 5.3613 2.52319 5.35153 2.54336 5.33625C2.55742 5.36619 2.55008 5.40653 2.53542 5.43647C2.59042 5.42241 2.62464 5.38942 2.60019 5.32158C2.63767 5.32005 2.67302 5.3038 2.69858 5.27636C2.68676 5.26165 2.67163 5.24994 2.65443 5.24219C2.63722 5.23444 2.61843 5.23086 2.59958 5.23175C2.63014 5.16819 2.59592 5.13275 2.54642 5.10464C2.54642 5.10464 2.57819 5.23175 2.49692 5.23175C2.46025 5.23175 2.42725 5.21953 2.42725 5.16636C2.42725 5.11992 2.46819 5.05514 2.56231 5.05942C2.65642 5.06308 2.73281 5.12419 2.73281 5.27514C2.73281 5.41386 2.62097 5.4823 2.47369 5.48719C2.34108 5.49086 2.24086 5.41875 2.24086 5.28186C2.24086 5.09914 2.50486 4.68358 2.50486 4.52041C2.50486 4.39819 2.39547 4.32975 2.28792 4.32975C2.14858 4.32975 2.03125 4.46786 2.03125 4.46786L2.11253 4.57053Z" fill="#FFCC4D"/>
<path d="M2.11285 4.57053C2.11285 4.57053 1.96801 4.44892 1.91912 4.50942C1.83968 4.60842 2.16174 5.09669 2.16174 5.26903C2.16174 5.55136 1.9729 5.62775 1.74068 5.66808C1.58424 5.69497 1.33062 5.65647 1.33062 5.65647C1.37829 5.5923 1.40946 5.57336 1.49012 5.56847C1.43439 5.53969 1.38784 5.49586 1.35576 5.44196C1.32367 5.38806 1.30735 5.32624 1.30862 5.26353C1.30862 5.0203 1.40885 4.92008 1.40885 4.6463C1.40885 4.49414 1.28418 4.30042 1.28418 4.30042C1.50418 4.32303 1.61418 4.52653 1.55185 4.68969C1.56869 4.69269 1.586 4.69165 1.60236 4.68665C1.61872 4.68166 1.63366 4.67286 1.64596 4.66097C1.66185 4.70619 1.63679 4.75875 1.60257 4.80397C1.62946 4.81864 1.64962 4.80947 1.69362 4.8003C1.68935 4.84736 1.66124 4.89625 1.5934 4.94269C1.7914 4.89136 1.91301 5.02947 1.91301 5.1743C1.91301 5.28369 1.83662 5.3613 1.76146 5.3613C1.73294 5.36068 1.70518 5.352 1.6814 5.33625C1.66796 5.3668 1.67529 5.40653 1.68935 5.43647C1.63496 5.42241 1.60074 5.38941 1.62518 5.32219C1.6066 5.32153 1.58834 5.3172 1.57146 5.30944C1.55457 5.30167 1.53939 5.29064 1.52679 5.27697C1.53842 5.26216 1.55341 5.25033 1.57052 5.24247C1.58763 5.23461 1.60637 5.23093 1.62518 5.23175C1.59462 5.16819 1.62885 5.13275 1.67835 5.10464C1.67835 5.10464 1.64657 5.23175 1.72785 5.23175C1.76451 5.23175 1.79751 5.21953 1.79751 5.16636C1.79751 5.11992 1.75657 5.05514 1.66246 5.05942C1.56774 5.06308 1.49135 5.12419 1.49135 5.27453C1.49135 5.41325 1.60318 5.48169 1.75046 5.48658C1.88368 5.49025 1.9839 5.41875 1.9839 5.28125C1.9839 5.09853 1.7199 4.68297 1.7199 4.5198C1.7199 4.39758 1.82929 4.32914 1.93685 4.32914C2.07618 4.32914 2.19351 4.46725 2.19351 4.46725L2.11285 4.57053ZM2.08229 7.87053C2.08229 8.17547 2.35607 8.33253 2.57118 8.33253C2.86085 8.33253 3.01546 8.15897 3.01546 7.93164C3.01546 7.8033 2.99162 7.72264 2.93235 7.59919L2.26807 6.2193C2.24415 6.16172 2.2337 6.09943 2.23751 6.03719C2.23751 5.91375 2.3579 5.8123 2.48379 5.80925C2.59807 5.8068 2.72335 5.91619 2.72335 6.04147C2.72335 6.19364 2.64512 6.26086 2.56385 6.26086C2.46424 6.26086 2.42451 6.21991 2.42451 6.14964C2.42451 6.10075 2.44835 6.07997 2.48196 6.07997C2.56751 6.07997 2.54368 6.19486 2.54368 6.19486C2.55499 6.19247 2.56564 6.18764 2.57489 6.18071C2.58414 6.17378 2.59177 6.16491 2.59723 6.15473C2.6027 6.14454 2.60589 6.13329 2.60656 6.12175C2.60723 6.11021 2.60538 6.09866 2.60112 6.08791C2.63307 6.08111 2.66186 6.06392 2.68301 6.03903C2.66054 6.01586 2.63156 6.00009 2.5999 5.9938C2.62007 5.9278 2.59318 5.89603 2.53574 5.88197C2.54735 5.90764 2.54735 5.93086 2.54368 5.95286C2.45262 5.92719 2.31329 5.96814 2.31329 6.12519C2.31329 6.28103 2.42146 6.41241 2.62496 6.38003C2.57607 6.40325 2.55224 6.4503 2.54735 6.50286C2.57235 6.49396 2.59847 6.48861 2.62496 6.48697C2.60112 6.52853 2.56812 6.56458 2.56935 6.64708C2.60724 6.62997 2.64207 6.59819 2.69035 6.61836C2.61457 6.76747 2.70746 6.97219 2.94457 7.02108C2.86428 6.9332 2.81848 6.81925 2.81562 6.70025C2.81562 6.34703 2.91462 6.28714 2.91462 6.04147C2.91294 5.9842 2.89778 5.92813 2.87039 5.8778C2.843 5.82748 2.80414 5.78431 2.75696 5.7518V5.75608C2.7857 5.74993 2.81285 5.73791 2.83672 5.72077C2.8606 5.70363 2.88067 5.68174 2.89568 5.65647C2.73679 5.61247 2.5064 5.61308 2.38296 5.66197C2.32732 5.66991 2.27417 5.69023 2.22743 5.72143C2.18068 5.75263 2.14153 5.79392 2.11285 5.84225C2.08293 5.91088 2.0675 5.98494 2.0675 6.0598C2.0675 6.13467 2.08293 6.20873 2.11285 6.27736C2.20696 6.47414 2.65062 7.41464 2.78874 7.71041C2.81879 7.77324 2.83485 7.84184 2.83579 7.91147C2.83579 8.09297 2.67018 8.15591 2.57607 8.15591C2.46301 8.15591 2.34812 8.06975 2.34812 7.9628C2.34812 7.89497 2.3854 7.85341 2.43796 7.85341C2.56568 7.85341 2.55774 7.96158 2.53207 8.03003C2.6109 7.99458 2.65735 7.93103 2.64451 7.8638C2.69443 7.85656 2.7398 7.83082 2.77162 7.79169C2.74046 7.75258 2.70257 7.72264 2.64451 7.72203C2.67018 7.61814 2.60051 7.57353 2.53207 7.54908C2.55346 7.62547 2.56751 7.71408 2.43796 7.71408C2.34324 7.71408 2.26868 7.72997 2.22529 7.79169C2.22224 7.7098 2.21429 7.38469 2.21429 7.38469C2.2094 7.26308 2.37746 7.26675 2.4844 7.3028C2.44468 7.16347 2.36218 7.08769 2.16968 7.10664C2.19921 7.09517 2.22441 7.07474 2.24173 7.04821C2.25905 7.02168 2.26762 6.9904 2.26624 6.95875C2.26624 6.84447 2.17335 6.71736 2.11285 6.68008L2.08229 7.87053Z" fill="#FFCC4D"/>
</g>
<defs>
<clipPath id="clip0_3973_25">
<rect width="22" height="22" fill="white"/>
</clipPath>
</defs>
</svg>
