<svg width="22" height="22" viewBox="0 0 22 22" fill="none" xmlns="http://www.w3.org/2000/svg">
<g clip-path="url(#clip0_3973_6)">
<path d="M22 16.5C22 17.1483 21.7425 17.77 21.284 18.2285C20.8256 18.6869 20.2039 18.9444 19.5556 18.9444H2.44444C1.79614 18.9444 1.17438 18.6869 0.715961 18.2285C0.257539 17.77 0 17.1483 0 16.5V14.0555H22V16.5Z" fill="#CE2028"/>
<path d="M0 7.94446H22V14.0556H0V7.94446Z" fill="#22408C"/>
<path d="M19.5556 3.05554H2.44444C1.79614 3.05554 1.17438 3.31308 0.715961 3.7715C0.257539 4.22993 0 4.85168 0 5.49999L0 7.94443H22V5.49999C22 4.85168 21.7425 4.22993 21.284 3.7715C20.8256 3.31308 20.2039 3.05554 19.5556 3.05554Z" fill="#EEEEEE"/>
</g>
<defs>
<clipPath id="clip0_3973_6">
<rect width="22" height="22" fill="white"/>
</clipPath>
</defs>
</svg>
