<svg width="22" height="22" viewBox="0 0 22 22" fill="none" xmlns="http://www.w3.org/2000/svg">
<g opacity="0.8">
<path fill-rule="evenodd" clip-rule="evenodd" d="M15.2857 1H6.71429C3.55837 1 1 3.55837 1 6.71429V15.2857C1 18.4416 3.55837 21 6.71429 21H15.2857C18.4416 21 21 18.4416 21 15.2857V6.71429C21 3.55837 18.4416 1 15.2857 1Z" stroke="#F6AE2D" stroke-width="2" stroke-linecap="round" stroke-linejoin="round"/>
<path fill-rule="evenodd" clip-rule="evenodd" d="M11.0006 15.2862C8.63356 15.2862 6.71484 13.3674 6.71484 11.0004C6.71484 8.63344 8.63356 6.71472 11.0006 6.71472C13.3676 6.71472 15.2863 8.63344 15.2863 11.0004C15.2863 12.137 14.8347 13.2272 14.031 14.0309C13.2273 14.8346 12.1371 15.2862 11.0006 15.2862Z" stroke="#F6AE2D" stroke-width="2" stroke-linecap="round" stroke-linejoin="round"/>
<path d="M16.7137 3.85758C15.9247 3.85758 15.2852 4.49717 15.2852 5.28615C15.2852 6.07513 15.9247 6.71472 16.7137 6.71472C17.5027 6.71472 18.1423 6.07513 18.1423 5.28615C18.1423 4.49717 17.5027 3.85758 16.7137 3.85758Z" fill="black"/>
<path d="M16.7143 4.57143C16.3198 4.57143 16 4.89123 16 5.28571C16 5.6802 16.3198 6 16.7143 6C17.1088 6 17.4286 5.6802 17.4286 5.28571C17.4286 4.89123 17.1088 4.57143 16.7143 4.57143Z" stroke="#F6AE2D" stroke-width="2" stroke-linecap="round"/>
</g>
</svg>
