<svg width="60" height="60" viewBox="0 0 60 60" fill="none" xmlns="http://www.w3.org/2000/svg">
<g clip-path="url(#clip0_4117_132)">
<path d="M57.0264 32.6514C57.3747 32.3033 57.6509 31.8899 57.8394 31.435C58.0279 30.98 58.1249 30.4924 58.1249 30C58.1249 29.5075 58.0279 29.0199 57.8394 28.565C57.6509 28.11 57.3747 27.6967 57.0264 27.3485L46.176 16.4987L51.6146 11.1309C52.4167 11.3297 53.262 11.2582 54.0193 10.9275C54.7766 10.5968 55.4036 10.0255 55.8031 9.30211C56.2025 8.57872 56.3521 7.74372 56.2286 6.92665C56.105 6.10958 55.7153 5.35612 55.1199 4.78314C54.5244 4.21016 53.7565 3.8497 52.9353 3.75768C52.1141 3.66566 51.2855 3.84723 50.578 4.27421C49.8705 4.70119 49.3237 5.34971 49.0224 6.11918C48.7211 6.88865 48.6821 7.73604 48.9116 8.5299L43.5241 13.8465L32.6514 2.97352C32.3033 2.62526 31.8899 2.34899 31.435 2.1605C30.98 1.97201 30.4924 1.875 30 1.875C29.5075 1.875 29.0199 1.97201 28.565 2.1605C28.11 2.34899 27.6967 2.62526 27.3485 2.97352L16.4987 13.8236L11.1315 8.3844C11.3301 7.58217 11.2584 6.7368 10.9276 5.97945C10.5967 5.2221 10.0252 4.59511 9.30164 4.19575C8.57807 3.79639 7.74294 3.64698 6.92579 3.77071C6.10864 3.89444 5.35517 4.28438 4.78226 4.88005C4.20936 5.47572 3.84905 6.2438 3.75724 7.06515C3.66543 7.8865 3.84724 8.71518 4.27448 9.42265C4.70172 10.1301 5.35049 10.6768 6.12015 10.9779C6.88981 11.279 7.73732 11.3177 8.53121 11.088L13.8468 16.4758L2.97352 27.3485C2.62526 27.6967 2.34899 28.11 2.1605 28.565C1.97201 29.0199 1.875 29.5075 1.875 30C1.875 30.4924 1.97201 30.98 2.1605 31.435C2.34899 31.8899 2.62526 32.3033 2.97352 32.6514L13.8465 43.5241L8.53121 48.912C7.73911 48.6839 6.89391 48.7235 6.1266 49.0246C5.35929 49.3257 4.71272 49.8715 4.28712 50.5774C3.86151 51.2833 3.68064 52.1099 3.77253 52.929C3.86442 53.7481 4.22395 54.5141 4.79538 55.1081C5.36681 55.7022 6.11823 56.0912 6.93319 56.2148C7.74814 56.3384 8.58111 56.1897 9.30299 55.7918C10.0249 55.3939 10.5953 54.769 10.926 54.014C11.2566 53.2589 11.329 52.4159 11.1318 51.6155L16.499 46.1763L27.3489 57.0264C27.697 57.3747 28.1104 57.6509 28.5653 57.8394C29.0203 58.0279 29.5079 58.1249 30.0003 58.1249C30.4928 58.1249 30.9804 58.0279 31.4353 57.8394C31.8903 57.6509 32.3036 57.3747 32.6518 57.0264L43.5245 46.1535L48.912 51.47C48.6839 52.2623 48.7236 53.1077 49.0248 53.8751C49.326 54.6425 49.872 55.2892 50.5781 55.7148C51.2842 56.1404 52.1109 56.3212 52.9302 56.2291C53.7495 56.1371 54.5156 55.7774 55.1096 55.2057C55.7037 54.6341 56.0926 53.8824 56.216 53.0673C56.3395 52.2522 56.1906 51.4191 55.7925 50.6971C55.3944 49.9752 54.7692 49.4048 54.0139 49.0743C53.2586 48.7437 52.4154 48.6716 51.615 48.869L46.1763 43.5013L57.0264 32.6514ZM30 54.375L5.62496 30L30 5.62496L54.375 30L30 54.375Z" fill="#FDFCFC"/>
<path d="M23.1548 27.7997C21.9293 26.6847 21.8397 24.7873 22.9547 23.5618C24.0697 22.3363 25.9671 22.2467 27.1926 23.3617L36.0688 31.4374C37.2941 32.5522 37.3839 34.4498 36.2689 35.6753C35.1539 36.9009 33.2563 36.9903 32.031 35.8755L23.1548 27.7997Z" fill="#FDFCFC"/>
<path d="M31.4308 23.1616C32.5458 21.9361 34.4432 21.8465 35.6687 22.9615C36.8943 24.0766 36.9839 25.974 35.8689 27.1996L27.7933 36.0756C26.6782 37.3012 24.7808 37.3907 23.5552 36.2757C22.3297 35.1607 22.2401 33.2633 23.3551 32.0377L31.4308 23.1616Z" fill="#FDFCFC"/>
</g>
<defs>
<clipPath id="clip0_4117_132">
<rect width="60" height="60" fill="white"/>
</clipPath>
</defs>
</svg>
