<svg width="60" height="60" viewBox="0 0 60 60" fill="none" xmlns="http://www.w3.org/2000/svg">
<path fill-rule="evenodd" clip-rule="evenodd" d="M45.91 14.0901C54.6968 22.8769 54.6968 37.123 45.91 45.91C37.123 54.6968 22.8769 54.6968 14.0901 45.91C5.3033 37.123 5.3033 22.8769 14.0901 14.0901C22.8769 5.3033 37.123 5.3033 45.91 14.0901ZM40.4812 44.0168L15.9832 19.5187C10.8442 26.3732 11.3916 36.1405 17.6256 42.3742C23.8596 48.6082 33.6267 49.1558 40.4812 44.0168ZM42.3742 17.6256C48.6082 23.8596 49.1558 33.6267 44.0168 40.4812L19.5187 15.9832C26.3732 10.8442 36.1405 11.3916 42.3742 17.6256Z" fill="#FDFCFC"/>
</svg>
