<svg width="60" height="60" viewBox="0 0 60 60" fill="none" xmlns="http://www.w3.org/2000/svg">
<path d="M38.6055 9.23052C42.8082 10.9713 46.4002 13.9193 48.9276 17.7016C51.4548 21.4839 52.8037 25.9308 52.8037 30.4797C52.8037 32.0676 51.5166 33.3547 49.9287 33.3547C48.3408 33.3547 47.0537 32.0676 47.0537 30.4797C47.0537 27.068 46.042 23.7329 44.1465 20.8962C42.251 18.0594 39.5571 15.8484 36.405 14.5428C33.253 13.2372 29.7846 12.8956 26.4384 13.5612C23.0923 14.2268 20.0186 15.8697 17.6061 18.2821C15.1937 20.6946 13.5508 23.7683 12.8852 27.1144C12.2196 30.4606 12.5612 33.929 13.8668 37.081C15.1724 40.2332 17.3834 42.927 20.2201 44.8225C23.0569 46.718 26.392 47.7297 29.8037 47.7297C31.3915 47.7297 32.6787 49.0169 32.6787 50.6047C32.6787 52.1926 31.3915 53.4797 29.8037 53.4797C25.2547 53.4797 20.808 52.1308 17.0256 49.6037C13.2433 47.0762 10.2953 43.4842 8.55449 39.2815C6.81368 35.0788 6.3582 30.4542 7.24566 25.9927C8.13312 21.5311 10.3237 17.4329 13.5403 14.2163C16.7569 10.9997 20.8551 8.80914 25.3166 7.92168C29.7782 7.03423 34.4027 7.4897 38.6055 9.23052ZM40.4616 37.0718L44.1787 40.7889L47.8958 37.0718C49.0185 35.9491 50.8389 35.9491 51.9616 37.0718C53.0843 38.1945 53.0843 40.015 51.9616 41.1376L48.2445 44.8547L51.9616 48.5718C53.0843 49.6945 53.0843 51.515 51.9616 52.6376C50.8389 53.7603 49.0185 53.7603 47.8958 52.6376L44.1787 48.9206L40.4616 52.6376C39.3389 53.7603 37.5185 53.7603 36.3958 52.6376C35.273 51.515 35.273 49.6945 36.3958 48.5718L40.1129 44.8547L36.3958 41.1376C35.273 40.015 35.273 38.1945 36.3958 37.0718C37.5185 35.9491 39.3389 35.9491 40.4616 37.0718ZM29.8037 16.1047C31.2781 16.1047 32.4933 17.2146 32.6594 18.6445L32.6787 18.9797V30.4797C32.6787 31.9541 31.5688 33.1693 30.139 33.3354L29.8037 33.3547H21.1787C19.5909 33.3547 18.3037 32.0675 18.3037 30.4797C18.3037 29.0053 19.4136 27.7902 20.8434 27.6241L21.1787 27.6047H26.9287V18.9797C26.9287 17.3919 28.2159 16.1047 29.8037 16.1047Z" fill="#FDFCFC"/>
</svg>
