<svg width="66" height="60" viewBox="0 0 66 60" fill="none" xmlns="http://www.w3.org/2000/svg">
<path d="M51 17.5H51.025M43.5 17.5H43.525M51 42.5H51.025M43.5 42.5H43.525M21 25H51C53.3298 25 54.4945 25 55.4135 24.6194C56.6385 24.1119 57.612 23.1386 58.1195 21.9134C58.5 20.9946 58.5 19.8297 58.5 17.5C58.5 15.1703 58.5 14.0055 58.1195 13.0866C57.612 11.8615 56.6385 10.8881 55.4135 10.3806C54.4945 10 53.3298 10 51 10H21C18.6703 10 17.5055 10 16.5866 10.3806C15.3615 10.8881 14.3881 11.8615 13.8806 13.0866C13.5 14.0055 13.5 15.1703 13.5 17.5C13.5 19.8297 13.5 20.9946 13.8806 21.9134C14.3881 23.1386 15.3615 24.1119 16.5866 24.6194C17.5055 25 18.6703 25 21 25ZM30.5 50H51C53.3298 50 54.4945 50 55.4135 49.6195C56.6385 49.112 57.612 48.1385 58.1195 46.9135C58.5 45.9945 58.5 44.8298 58.5 42.5C58.5 40.1702 58.5 39.0055 58.1195 38.0865C57.612 36.8615 56.6385 35.888 55.4135 35.3805C54.4945 35 53.3298 35 51 35L25.5 34.5C20.253 34.5 27 37.3656 27 43C27 48.6344 25.253 50 30.5 50Z" stroke="#FDFCFC" stroke-width="2" stroke-linecap="round" stroke-linejoin="round"/>
<path fill-rule="evenodd" clip-rule="evenodd" d="M17.6593 31.8443C20.3866 32.0287 22.9434 33.5042 24.8184 35.5328C27.0343 38.1148 28.2275 41.2501 28.2275 44.9386C28.2275 47.8894 27.2047 50.6558 25.5002 53.0533C23.7956 55.2664 21.4093 56.9263 18.682 57.4796C15.9547 58.0328 13.2275 57.664 10.8411 56.1886C8.45474 54.7132 6.57974 52.5001 5.55701 49.7337C4.53428 46.9673 4.36383 43.832 5.2161 41.0656C6.06837 38.1148 7.60246 35.7173 9.98883 34.0574C12.2047 32.3976 14.932 31.6599 17.6593 31.8443ZM18.5116 55.6353C20.7275 55.082 22.7729 53.791 24.307 51.7623C25.6706 49.7337 26.5229 47.3361 26.3525 44.7542C26.3525 41.8033 25.3297 38.8525 23.4547 36.8238C21.7502 34.9796 19.7047 33.873 17.3184 33.6886C15.1025 33.5042 12.7161 34.0574 10.8411 35.5328C8.9661 37.0082 7.60247 39.0369 6.92065 41.6189C6.23883 44.0164 6.23883 46.5984 7.26156 48.996C8.28428 51.3935 9.81837 53.2378 11.8638 54.5287C13.9093 55.8197 16.2956 56.1886 18.5116 55.6353ZM16.4661 43.832L20.557 39.2214L21.7502 40.5123L17.6593 45.123L21.7502 49.7337L20.557 51.0246L16.4661 46.414L12.3752 51.0246L11.182 49.7337L15.2729 45.123L11.182 40.5123L12.3752 39.2214L16.4661 43.832Z" fill="#FDFCFC"/>
</svg>
