<svg width="60" height="60" viewBox="0 0 60 60" fill="none" xmlns="http://www.w3.org/2000/svg">
<path fill-rule="evenodd" clip-rule="evenodd" d="M14.4855 14.4855C7.45602 21.5149 7.45602 32.9119 14.4855 39.9412C21.5149 46.9708 32.9119 46.9708 39.9412 39.9412C46.9708 32.9119 46.9708 21.5149 39.9412 14.4855C32.9119 7.45602 21.5149 7.45602 14.4855 14.4855ZM35.6986 35.6986C31.0123 40.3849 23.4144 40.3849 18.7281 35.6986C14.0418 31.0123 14.0418 23.4144 18.7281 18.7281C23.4144 14.0418 31.0123 14.0418 35.6986 18.7281C40.3849 23.4144 40.3849 31.0123 35.6986 35.6986Z" fill="#FDFCFC"/>
<path d="M35.6987 44.1837C33.9416 42.4263 33.9416 39.5772 35.6987 37.8198C37.4561 36.0624 40.3055 36.0624 42.0629 37.8198L52.6694 48.4263C54.4268 50.1837 54.4268 53.0328 52.6694 54.7902C50.912 56.5476 48.0629 56.5476 46.3055 54.7902L35.6987 44.1837Z" fill="#FDFCFC"/>
<path d="M21.1646 25.6735C19.939 24.5585 19.8495 22.6611 20.9645 21.4356C22.0795 20.21 23.9769 20.1205 25.2024 21.2355L34.0786 29.3112C35.3039 30.426 35.3937 32.3236 34.2787 33.5491C33.1637 34.7746 31.2661 34.8641 30.0407 33.7493L21.1646 25.6735Z" fill="#FDFCFC"/>
<path d="M29.4406 21.0354C30.5556 19.8099 32.453 19.7203 33.6785 20.8353C34.904 21.9503 34.9937 23.8478 33.8787 25.0733L25.803 33.9494C24.688 35.175 22.7905 35.2645 21.565 34.1494C20.3395 33.0344 20.2499 31.1371 21.3649 29.9115L29.4406 21.0354Z" fill="#FDFCFC"/>
</svg>
