<svg width="16" height="16" viewBox="0 0 16 16" fill="none" xmlns="http://www.w3.org/2000/svg">
<g opacity="0.8">
<path d="M5.87596 0.0291748C5.57539 0.105694 5.22192 0.418818 5.06665 0.752749L4.98747 0.919716L4.97751 3.70964L4.96755 6.503H4.81228C4.44232 6.503 4.04934 6.68045 3.75529 6.97965L3.57717 7.16398L3.42517 7.0388C3.20051 6.86135 2.84051 6.68406 2.57635 6.62491C1.48964 6.38487 0.435922 7.04929 0.0626943 8.20773C0.00326532 8.38863 0 8.55559 0 11.2341C0 14.0658 0 14.0692 0.0726536 14.3127C0.24441 14.8798 0.68376 15.4294 1.17911 15.6833C1.91904 16.0696 2.69847 15.9999 3.37554 15.492L3.58697 15.3321L3.77521 15.5198C3.87758 15.6242 4.02958 15.7494 4.1122 15.8017C4.45244 16.0104 4.18811 15.9999 9.64465 15.9999C12.8848 15.9999 14.6817 15.986 14.7774 15.9617C15.1506 15.8713 15.5833 15.5303 15.7947 15.1616C16.0127 14.7791 16.0062 14.9077 15.9962 11.1612L15.9862 7.77287L15.9103 7.5746C15.7485 7.15023 15.3719 6.76058 14.9657 6.6005C14.8733 6.56232 14.6883 6.52398 14.5595 6.51349L14.3185 6.49268V5.42813C14.3185 4.46107 14.3118 4.34964 14.2558 4.22446C14.1799 4.05045 10.4177 0.0883265 10.2789 0.0360527C10.1699 -0.00899887 6.04445 -0.0124378 5.87596 0.0291748ZM9.33754 2.60003L9.3475 4.15499L9.4564 4.38799C9.58195 4.65933 9.78669 4.86808 10.0575 5.00375L10.2393 5.0942L11.7851 5.10468L13.3276 5.11517V5.80745V6.50317H9.64465H5.96184V3.7724V1.04163H7.64643H9.32758L9.33754 2.60003ZM11.5604 2.78092L12.7825 4.06799H11.5505H10.3217V2.78092C10.3217 2.07128 10.325 1.49386 10.3317 1.49386C10.3351 1.49386 10.8899 2.07128 11.5604 2.78092ZM14.7973 7.60246C15.022 7.71371 15.012 7.5225 15.012 11.2585C15.012 13.8815 15.0021 14.6432 14.9691 14.7129C14.9459 14.7581 14.8767 14.8346 14.8171 14.8764L14.7048 14.9563L9.60824 14.9493L4.50844 14.9388L4.40281 14.8239L4.29375 14.7127L4.28379 11.3036C4.27383 7.52921 4.2673 7.69618 4.48199 7.59868C4.5744 7.55689 5.34078 7.55002 9.63795 7.54658C14.1697 7.54675 14.6982 7.55363 14.7973 7.60246ZM2.70843 7.71371C2.92312 7.81809 3.09815 7.99898 3.19398 8.22166L3.2699 8.39912L3.27986 11.189C3.28656 13.8954 3.28656 13.9858 3.2237 14.1772C3.13113 14.4451 2.9628 14.6539 2.73161 14.7722C2.55659 14.8626 2.51692 14.8695 2.13047 14.8695C1.78042 14.8695 1.69454 14.859 1.56573 14.7964C1.34777 14.6886 1.18923 14.5251 1.08344 14.3024L0.991028 14.1041V11.2688C0.991028 8.57279 0.994293 8.4268 1.05372 8.26327C1.12311 8.06845 1.3014 7.84577 1.45013 7.76582C1.66809 7.64407 1.8134 7.61622 2.1801 7.62671C2.47398 7.63376 2.57635 7.65112 2.70843 7.71371Z" fill="#F6AE2D"/>
<path d="M6.68848 9.14707V9.66895H7.33256H7.97665V9.14707V8.6252H7.33256H6.68848V9.14707Z" fill="#F6AE2D"/>
<path d="M8.96777 9.14707V9.66895H9.62835H10.2889V9.14707V8.6252H9.62835H8.96777V9.14707Z" fill="#F6AE2D"/>
<path d="M11.2803 9.14707V9.66895H11.9409H12.6014V9.14707V8.6252H11.9409H11.2803V9.14707Z" fill="#F6AE2D"/>
<path d="M6.68848 11.234V11.7559H7.33256H7.97665V11.234V10.7121H7.33256H6.68848V11.234Z" fill="#F6AE2D"/>
<path d="M8.96777 11.234V11.7559H9.62835H10.2889V11.234V10.7121H9.62835H8.96777V11.234Z" fill="#F6AE2D"/>
<path d="M11.2803 11.234V11.7559H11.9409H12.6014V11.234V10.7121H11.9409H11.2803V11.234Z" fill="#F6AE2D"/>
<path d="M6.68848 13.3216V13.8435H7.33256H7.97665V13.3216V12.7998H7.33256H6.68848V13.3216Z" fill="#F6AE2D"/>
<path d="M8.96777 13.3216V13.8435H9.62835H10.2889V13.3216V12.7998H9.62835H8.96777V13.3216Z" fill="#F6AE2D"/>
<path d="M11.2803 13.3216V13.8435H11.9409H12.6014V13.3216V12.7998H11.9409H11.2803V13.3216Z" fill="#F6AE2D"/>
</g>
</svg>
