<svg width="16" height="16" viewBox="0 0 16 16" fill="none" xmlns="http://www.w3.org/2000/svg">
<g opacity="0.8">
<path fill-rule="evenodd" clip-rule="evenodd" d="M11 1H5C2.79086 1 1 2.79086 1 5V11C1 13.2091 2.79086 15 5 15H11C13.2091 15 15 13.2091 15 11V5C15 2.79086 13.2091 1 11 1Z" stroke="#F6AE2D" stroke-linecap="round" stroke-linejoin="round"/>
<path fill-rule="evenodd" clip-rule="evenodd" d="M7.99951 11.0002C6.34261 11.0002 4.99951 9.65714 4.99951 8.00024C4.99951 6.34334 6.34261 5.00024 7.99951 5.00024C9.65641 5.00024 10.9995 6.34334 10.9995 8.00024C10.9995 8.79584 10.6834 9.55894 10.1208 10.1215C9.55821 10.6841 8.79511 11.0002 7.99951 11.0002Z" stroke="#F6AE2D" stroke-linecap="round" stroke-linejoin="round"/>
<path d="M12 3.00024C11.4477 3.00024 11 3.44796 11 4.00024C11 4.55253 11.4477 5.00024 12 5.00024C12.5523 5.00024 13 4.55253 13 4.00024C13 3.44796 12.5523 3.00024 12 3.00024Z" fill="black"/>
<path d="M12 3.5C11.7239 3.5 11.5 3.72386 11.5 4C11.5 4.27614 11.7239 4.5 12 4.5C12.2761 4.5 12.5 4.27614 12.5 4C12.5 3.72386 12.2761 3.5 12 3.5Z" stroke="#F6AE2D" stroke-linecap="round"/>
</g>
</svg>
