<?xml version="1.0" encoding="iso-8859-1"?>
<!-- Uploaded to: SVG Repo, www.svgrepo.com, Generator: SVG Repo Mixer Tools -->
<svg height="800px" width="800px" version="1.1" id="Layer_1" xmlns="http://www.w3.org/2000/svg" xmlns:xlink="http://www.w3.org/1999/xlink" 
	 viewBox="0 0 512 512" xml:space="preserve">
<g transform="translate(1 1)">
	<path style="fill:#FCC309;" d="M7.828,449.263h494.345V422.78H7.828V449.263z"/>
	<path style="fill:#FFFFFF;" d="M7.828,449.263H34.31V78.504H7.828V449.263z"/>
	<path style="fill:#FCC309;" d="M34.31,422.78h467.862V78.504h-87.393l7.945,8.828l-35.31,35.31l35.31,35.31l-35.31,35.31
		l35.31,35.31l-35.31,35.31l35.31,35.31l-35.31,35.31l35.31,35.31l-19.421,19.421c-46.786-5.297-97.986,5.297-148.303,24.717
		c-69.738-28.248-143.89-37.959-211.862-8.828H34.31"/>
	<path style="fill:#FD9808;" d="M475.69,449.263h26.483V78.504H475.69V449.263z"/>
	<g>
		<path style="fill:#FFDD09;" d="M255,413.952L255,413.952c-69.738-28.248-143.89-37.959-211.862-8.828H34.31V78.504h8.828
			c66.207-23.834,145.655-23.834,211.862,0V413.952z"/>
		<path style="fill:#FFDD09;" d="M422.724,369.815l-35.31-35.31l35.31-35.31l-35.31-35.31l35.31-35.31l-35.31-35.31l35.31-35.31
			l-35.31-35.31l35.31-35.31L398.89,63.497c-48.552-6.179-97.986-0.883-143.89,15.007v335.448
			c50.317-19.421,101.517-30.014,148.303-25.6L422.724,369.815z"/>
	</g>
	<path d="M502.172,458.09H7.828c-5.297,0-8.828-3.531-8.828-8.828V422.78c0-5.297,3.531-8.828,8.828-8.828h494.345
		c5.297,0,8.828,3.531,8.828,8.828v26.483C511,454.559,507.469,458.09,502.172,458.09z M16.655,440.435h476.69v-8.828H16.655
		V440.435z"/>
	<path d="M255,422.78c-0.883,0-2.648,0-3.531-0.883c-77.683-30.897-146.538-34.428-204.8-8.828
		c-0.883,0.883-2.648,0.883-3.531,0.883H34.31c-5.297,0-8.828-3.531-8.828-8.828V78.504c0-5.297,3.531-8.828,8.828-8.828h7.062
		c67.972-23.834,148.303-23.834,216.276,0.883c3.531,0.883,6.179,4.414,6.179,7.945v335.448c0,2.648-1.766,5.297-3.531,7.062
		C258.531,421.897,256.766,422.78,255,422.78z M130.531,378.642c36.193,0,74.152,7.945,115.641,22.069V84.684
		c-63.559-21.186-137.71-20.303-200.386,1.766c-0.883,0.883-1.766,0.883-2.648,0.883v308.083
		C70.503,383.939,99.634,378.642,130.531,378.642z"/>
	<path d="M202.034,149.125h-79.448c-5.297,0-8.828-3.531-8.828-8.828s3.531-8.828,8.828-8.828h79.448
		c5.297,0,8.828,3.531,8.828,8.828S207.331,149.125,202.034,149.125z"/>
	<path d="M202.034,193.263H87.276c-5.297,0-8.828-3.531-8.828-8.828s3.531-8.828,8.828-8.828h114.759
		c5.297,0,8.828,3.531,8.828,8.828S207.331,193.263,202.034,193.263z"/>
	<path d="M166.724,237.401H87.276c-5.297,0-8.828-3.531-8.828-8.828s3.531-8.828,8.828-8.828h79.448
		c5.297,0,8.828,3.531,8.828,8.828S172.021,237.401,166.724,237.401z"/>
	<path d="M202.034,281.539h-79.448c-5.297,0-8.828-3.531-8.828-8.828c0-5.297,3.531-8.828,8.828-8.828h79.448
		c5.297,0,8.828,3.531,8.828,8.828C210.862,278.008,207.331,281.539,202.034,281.539z"/>
	<path d="M202.034,325.677H87.276c-5.297,0-8.828-3.531-8.828-8.828c0-5.297,3.531-8.828,8.828-8.828h114.759
		c5.297,0,8.828,3.531,8.828,8.828C210.862,322.146,207.331,325.677,202.034,325.677z"/>
	<path d="M360.931,193.263h-52.966c-5.297,0-8.828-3.531-8.828-8.828s3.531-8.828,8.828-8.828h52.966
		c5.297,0,8.828,3.531,8.828,8.828S366.228,193.263,360.931,193.263z"/>
	<path d="M369.759,149.125h-61.793c-5.297,0-8.828-3.531-8.828-8.828s3.531-8.828,8.828-8.828h61.793
		c5.297,0,8.828,3.531,8.828,8.828S375.055,149.125,369.759,149.125z"/>
	<path d="M360.931,325.677h-17.655c-5.297,0-8.828-3.531-8.828-8.828c0-5.297,3.531-8.828,8.828-8.828h17.655
		c5.297,0,8.828,3.531,8.828,8.828C369.759,322.146,366.228,325.677,360.931,325.677z"/>
	<path d="M360.931,281.539h-52.966c-5.297,0-8.828-3.531-8.828-8.828c0-5.297,3.531-8.828,8.828-8.828h52.966
		c5.297,0,8.828,3.531,8.828,8.828C369.759,278.008,366.228,281.539,360.931,281.539z"/>
	<path d="M378.586,237.401h-70.621c-5.297,0-8.828-3.531-8.828-8.828s3.531-8.828,8.828-8.828h70.621
		c5.297,0,8.828,3.531,8.828,8.828S383.883,237.401,378.586,237.401z"/>
	<path d="M255,422.78c-1.766,0-3.531-0.883-5.297-1.766c-1.766-1.766-3.531-4.414-3.531-7.062V78.504
		c0-3.531,2.648-7.062,6.179-7.945c46.786-16.772,97.986-22.069,147.421-15.89c1.766,0,3.531,0.883,5.297,2.648l23.834,23.834
		c1.766,0.883,2.648,3.531,2.648,6.179s-0.883,4.414-2.648,6.179l-29.131,29.131l29.131,29.131c3.531,3.531,3.531,8.828,0,12.359
		l-29.131,29.131l29.131,29.131c3.531,3.531,3.531,8.828,0,12.359l-29.131,29.131l29.131,29.131c3.531,3.531,3.531,8.828,0,12.359
		l-29.131,29.131l29.131,29.131c3.531,3.531,3.531,8.828,0,12.359l-19.421,19.421c-1.766,1.766-4.414,2.648-7.062,2.648
		c-42.372-3.531-90.924,4.414-144.772,24.717C256.766,422.78,255.883,422.78,255,422.78z M263.828,84.684v316.028
		c49.434-17.655,95.338-24.717,136.828-22.069l9.71-9.71l-29.131-29.131c-3.531-3.531-3.531-8.828,0-12.359l29.131-29.131
		l-29.131-29.131c-3.531-3.531-3.531-8.828,0-12.359l29.131-29.131l-29.131-29.131c-3.531-3.531-3.531-8.828,0-12.359l29.131-29.131
		l-29.131-29.131c-3.531-3.531-3.531-8.828,0-12.359l29.131-28.248l-15.007-15.007C351.221,67.028,305.317,71.442,263.828,84.684z"
		/>
	<path d="M502.172,431.608H7.828c-5.297,0-8.828-3.531-8.828-8.828V78.504c0-5.297,3.531-8.828,8.828-8.828H34.31
		c5.297,0,8.828,3.531,8.828,8.828v316.91c60.91-25.6,132.414-22.069,211.862,8.828c52.966-20.303,102.4-28.248,145.655-25.6
		l9.71-9.71l-29.131-29.131c-3.531-3.531-3.531-8.828,0-12.359l29.131-29.131l-29.131-29.131c-3.531-3.531-3.531-8.828,0-12.359
		l29.131-29.131l-29.131-29.131c-3.531-3.531-3.531-8.828,0-12.359l29.131-29.131l-29.131-29.131c-3.531-3.531-3.531-8.828,0-12.359
		l29.131-28.248l-1.766-1.766c-2.648-3.531-3.531-7.062-2.648-10.593c1.766-3.531,4.414-5.297,8.828-5.297h87.393
		c5.297,0,8.828,3.531,8.828,8.828V422.78C511,428.077,507.469,431.608,502.172,431.608z M281.483,413.952h211.862V87.332h-61.793
		c0,1.766-0.883,4.414-2.648,6.179l-29.131,29.131l29.131,29.131c3.531,3.531,3.531,8.828,0,12.359l-29.131,29.131l29.131,29.131
		c3.531,3.531,3.531,8.828,0,12.359l-29.131,29.131l29.131,29.131c3.531,3.531,3.531,8.828,0,12.359l-29.131,29.131l29.131,29.131
		c3.531,3.531,3.531,8.828,0,12.359l-19.421,19.421c-1.766,1.766-4.414,2.648-7.062,2.648
		C367.11,393.649,325.621,399.828,281.483,413.952z M16.655,413.952H229.4c-68.855-22.952-130.648-23.835-182.731-0.883
		c-0.883,0.883-2.648,0.883-3.531,0.883H34.31c-5.297,0-8.828-3.531-8.828-8.828V87.332h-8.828V413.952z"/>
</g>
</svg>