<svg width="14" height="14" viewBox="0 0 14 14" fill="none" xmlns="http://www.w3.org/2000/svg">
<path opacity="0.8" fill-rule="evenodd" clip-rule="evenodd" d="M1.62792 6.99998C1.62792 3.87038 4.10597 1.33333 7.16279 1.33333C10.2196 1.33333 12.6977 3.87038 12.6977 6.99998C12.6977 10.1296 10.2196 12.6666 7.16279 12.6666C6.07392 12.6666 5.06036 12.3454 4.2052 11.7907C4.04605 11.6875 3.85103 11.6599 3.6705 11.715L1.79571 12.2879L2.50159 10.5968C2.58503 10.397 2.56805 10.168 2.4561 9.98338C1.93115 9.11731 1.62792 8.09592 1.62792 6.99998ZM7.16279 0C3.38672 0 0.325595 3.134 0.325595 6.99998C0.325595 8.22538 0.633687 9.37885 1.17512 10.3818L0.0524 13.0713C-0.0468515 13.3091 -0.00285767 13.5842 0.165279 13.7771C0.333416 13.9701 0.595372 14.0461 0.83739 13.9721L3.76724 13.077C4.76811 13.6643 5.92799 14 7.16279 14C10.9389 14 14 10.866 14 6.99998C14 3.134 10.9389 0 7.16279 0ZM8.65558 8.45491L7.79982 9.07205C7.39903 8.83831 6.95592 8.51205 6.51143 8.05698C6.04937 7.58392 5.7068 7.09552 5.45422 6.64752L5.99806 6.17492C6.23143 5.97212 6.29531 5.63021 6.15154 5.35351L5.45859 4.02018C5.36528 3.84064 5.19704 3.71453 5.00168 3.67769C4.80632 3.64085 4.60523 3.69733 4.45556 3.83105L4.25011 4.01462C3.75606 4.45608 3.46386 5.18152 3.70604 5.91605C3.9571 6.67752 4.49291 7.87598 5.59057 8.99978C6.77151 10.2088 7.97108 10.685 8.67258 10.8699C9.23779 11.0188 9.77265 10.8192 10.1495 10.5048L10.5347 10.1834C10.6995 10.046 10.7883 9.83491 10.7728 9.61791C10.7573 9.40091 10.6393 9.20531 10.4567 9.09391L9.36385 8.42725C9.14311 8.29265 8.86571 8.30345 8.65558 8.45491Z" fill="#F6AE2D"/>
</svg>
