<svg width="16" height="16" viewBox="0 0 16 16" fill="none" xmlns="http://www.w3.org/2000/svg">
<path opacity="0.8" d="M15.9999 7.95051C15.9812 6.41658 15.5271 4.91996 14.6913 3.63693C13.8555 2.35391 12.6728 1.33789 11.2823 0.708549C9.89178 0.0792093 8.35153 -0.137242 6.84289 0.0846729C5.33428 0.306597 3.92008 0.95764 2.76687 1.96116C1.61366 2.96467 0.769464 4.27885 0.333701 5.74892C-0.102051 7.21901 -0.111232 8.78373 0.307261 10.2589C0.725753 11.7341 1.55448 13.0581 2.69584 14.0753C3.83719 15.0924 5.24366 15.7602 6.74959 16V10.2949H4.74954V7.95051H6.74959V6.16956C6.70329 5.75547 6.74789 5.33618 6.88029 4.94131C7.01269 4.54645 7.2296 4.18563 7.51571 3.88433C7.80182 3.58301 8.15013 3.34856 8.53614 3.19752C8.92215 3.04647 9.33646 2.98251 9.74967 3.01016C10.3495 3.01842 10.9479 3.07224 11.5397 3.17115V5.18352H10.5397C10.3673 5.16164 10.1921 5.17903 10.0273 5.2344C9.86238 5.28977 9.71197 5.3817 9.58717 5.50341C9.46237 5.62512 9.36636 5.77349 9.30626 5.93753C9.24606 6.10164 9.22336 6.27722 9.23966 6.45129V7.97063H11.4597L11.0997 10.315H9.24966V15.9497C11.1396 15.6489 12.8599 14.6766 14.0983 13.2089C15.3367 11.7413 16.0114 9.87574 15.9999 7.95051Z" fill="#F6AE2D"/>
</svg>
