<svg width="14" height="14" viewBox="0 0 14 14" fill="none" xmlns="http://www.w3.org/2000/svg">
<path opacity="0.8" d="M1 2.66667C1 8.3736 5.62639 13 11.3333 13C11.5908 13 11.8461 12.9906 12.0989 12.9721C12.3889 12.9508 12.5339 12.9402 12.666 12.8642C12.7753 12.8013 12.879 12.6897 12.9338 12.576C13 12.4388 13 12.2787 13 11.9587V10.0805C13 9.81127 13 9.67667 12.9557 9.56133C12.9166 9.4594 12.853 9.36867 12.7706 9.29707C12.6773 9.216 12.5508 9.17 12.2979 9.078L10.16 8.3006C9.86567 8.1936 9.71847 8.14007 9.57887 8.14913C9.45573 8.15713 9.33727 8.1992 9.2366 8.27053C9.12247 8.3514 9.04193 8.48567 8.8808 8.75427L8.33333 9.66667C6.56673 8.8666 5.1346 7.4326 4.33333 5.66667L5.24575 5.11921C5.5143 4.95809 5.64857 4.87752 5.72947 4.76337C5.8008 4.66272 5.84287 4.54425 5.85087 4.42113C5.85993 4.28151 5.8064 4.13435 5.6994 3.84003L4.92199 1.70214C4.83 1.44917 4.78401 1.32269 4.70295 1.2294C4.63134 1.14699 4.54059 1.08343 4.43868 1.0443C4.32331 1 4.18872 1 3.91955 1H2.04134C1.72125 1 1.56121 1 1.42399 1.06617C1.31033 1.12097 1.19876 1.22467 1.1358 1.33402C1.05979 1.46605 1.04917 1.61108 1.02793 1.90115C1.00942 2.15391 1 2.40919 1 2.66667Z" stroke="#F6AE2D" stroke-linecap="round" stroke-linejoin="round"/>
</svg>
