<svg width="14" height="12" viewBox="0 0 14 12" fill="none" xmlns="http://www.w3.org/2000/svg">
<path opacity="0.8" d="M13.4409 10.2895C13.1849 10.947 12.5247 11.5425 11.9047 11.674C11.8413 11.6875 10.3262 12 7.00416 12H6.99541C3.6738 12 2.15738 11.6875 2.09438 11.6745C1.47442 11.5425 0.813775 10.947 0.557392 10.289C0.534642 10.2305 0 8.8235 0 6C0 3.1765 0.534642 1.769 0.557392 1.7105C0.813775 1.0525 1.47442 0.4575 2.09438 0.326C2.15738 0.3125 3.6738 0 6.99541 0C10.3262 0 11.8413 0.3125 11.9043 0.3255C12.5247 0.4575 13.1849 1.0525 13.4413 1.71C13.464 1.769 14 3.1765 14 6C14 8.8235 13.464 10.2305 13.4409 10.2895ZM12.6406 2.115C12.5041 1.7645 12.0763 1.3795 11.7446 1.309C11.7306 1.306 10.2313 1 7.00416 1C3.76874 1 2.26807 1.306 2.25363 1.309C1.922 1.3795 1.49455 1.7645 1.3576 2.117C1.35323 2.1275 0.875465 3.4145 0.875465 6C0.875465 8.585 1.35323 9.872 1.35848 9.885C1.49455 10.2355 1.922 10.6205 2.25407 10.691C2.26807 10.694 3.76874 11 6.99541 11H7.00416C10.2313 11 11.7306 10.694 11.7451 10.691C12.0767 10.6205 12.5041 10.2355 12.6411 9.883C12.6455 9.872 13.1241 8.585 13.1241 6C13.1241 3.415 12.6455 2.1275 12.6406 2.115ZM5.92394 8.923C5.85306 8.9745 5.77168 9 5.69074 9C5.61811 9 5.54549 8.9795 5.47942 8.9375C5.33985 8.8495 5.25323 8.682 5.25323 8.5V3.5C5.25323 3.3185 5.33898 3.1515 5.47767 3.0635C5.61636 2.975 5.78656 2.979 5.92087 3.0745L9.42929 5.5525C9.55749 5.643 9.63624 5.803 9.63668 5.9755C9.63711 6.148 9.56011 6.309 9.43236 6.4005L5.92394 8.923ZM6.12869 4.397V7.5945L8.37226 5.9815L6.12869 4.397Z" fill="#F6AE2D"/>
</svg>
