<svg width="60" height="60" viewBox="0 0 60 60" fill="none" xmlns="http://www.w3.org/2000/svg">
<path d="M30 7.5C17.5935 7.5 7.5 17.5935 7.5 30C7.5 42.4065 17.5935 52.5 30 52.5C42.4065 52.5 52.5 42.4065 52.5 30C52.5 17.5935 42.4065 7.5 30 7.5ZM30 48.1452C19.9948 48.1452 11.8548 40.0053 11.8548 30C11.8548 19.9947 19.9948 11.8548 30 11.8548C40.0052 11.8548 48.1452 19.9948 48.1452 30C48.1452 40.0052 40.0052 48.1452 30 48.1452Z" fill="#FDFCFC"/>
<path d="M40.1615 27.8225H19.8389V32.1773H40.1615V27.8225Z" fill="#FDFCFC"/>
</svg>
