<svg width="117" height="9" viewBox="0 0 117 9" fill="none" xmlns="http://www.w3.org/2000/svg">
<rect opacity="0.8" x="56" y="2" width="5" height="5" rx="2.5" fill="#F9BD4D"/>
<path d="M5.73039 8.85383C1.94304 8.85383 1.14441e-05 6.2564 1.14441e-05 4.21555C1.14441e-05 1.46737 2.14795 0.000518328 4.9638 0.000518328C6.40616 -0.0135282 7.82868 0.258135 9.0927 0.789026L26.2307 7.09129C26.9479 7.3199 27.7245 7.4191 28.5001 7.38118C30.0408 7.38118 31.2931 6.239 31.3311 5.05044C31.369 3.96045 30.0028 2.77769 28.4545 2.77769C26.5722 2.77769 25.7297 3.51981 25.7297 4.29093C25.7297 5.23598 26.2383 5.61284 27.1111 5.61284C27.7107 5.61284 27.9687 5.38672 27.9687 5.06784C27.9687 4.25614 26.5419 4.48226 26.5419 4.48226C26.5715 4.37496 26.6315 4.27391 26.7176 4.18616C26.8037 4.0984 26.9138 4.02605 27.0403 3.97416C27.1668 3.92227 27.3065 3.89208 27.4499 3.88571C27.5932 3.87933 27.7366 3.89693 27.8701 3.93726C27.9508 3.63142 28.1649 3.35551 28.4773 3.15455C28.766 3.36478 28.9622 3.63825 29.0389 3.93726C29.8662 3.75173 30.2609 4.00103 30.4355 4.54603C30.1593 4.45172 29.8516 4.42538 29.555 4.47066C29.8738 5.33454 29.3653 6.65645 27.4147 6.65645C25.4793 6.65645 23.855 5.63023 24.2497 3.70534C23.9537 4.16337 23.3769 4.39529 22.7166 4.43587C22.8911 4.088 22.9215 3.70534 22.9215 3.70534C22.4054 3.92566 21.95 4.23875 20.9329 4.22715C21.1454 3.86768 21.5401 3.543 21.2896 3.07918C19.4453 3.79811 16.8875 2.91684 16.2955 0.667272C17.3831 1.43 18.7966 1.86478 20.2726 1.89062C24.652 1.89062 25.4034 0.957164 28.4545 0.957164C29.7372 0.957164 31.1186 1.46158 32.0521 2.45301H32.0066C32.2267 1.80945 32.6441 1.3862 33.2285 1.14849C33.7826 2.65014 33.775 4.83013 33.1678 6.00129C33.0661 6.52916 32.8126 7.03326 32.4254 7.47735C32.0383 7.92145 31.5272 8.29452 30.9288 8.56974C30.0763 8.85319 29.1565 8.99947 28.2268 8.99947C27.2971 8.99947 26.3773 8.85319 25.5248 8.56974C23.0809 7.67687 11.4 3.46763 7.71893 2.15732C6.94088 1.86745 6.08749 1.71487 5.22185 1.71088C2.97525 1.71088 2.19349 3.2821 2.19349 4.17497C2.19349 5.24757 3.26366 6.33757 4.59189 6.33757C5.41919 6.33757 5.9353 5.9839 5.9353 5.48528C5.9353 4.27353 4.5919 4.3489 3.74942 4.58662C4.18963 3.83869 4.98657 3.39806 5.81387 3.51981C5.90042 3.04672 6.21756 2.61603 6.70188 2.31386C6.95736 2.45131 7.16866 2.63126 7.31985 2.84016C7.47105 3.04906 7.5582 3.28145 7.57473 3.51981C8.86501 3.2763 9.40388 3.93726 9.70747 4.58662C8.75874 4.38369 7.6658 4.25034 7.6658 5.48528C7.6658 6.38395 7.46846 7.09129 6.6943 7.50293L11.7492 7.60729C13.252 7.65368 13.214 6.05347 12.7662 5.03885C14.5043 5.42151 15.4454 6.21001 15.2101 8.03054C15.3526 7.75036 15.6063 7.51131 15.9358 7.347C16.2652 7.18269 16.6538 7.10137 17.0469 7.11448C18.4662 7.11448 20.0373 7.98995 20.5079 8.56974L5.73039 8.85383Z" fill="#F9BD4D"/>
<path d="M110.9 8.85435C114.687 8.85435 116.63 6.25676 116.63 4.2158C116.63 1.46746 114.482 0.000518358 111.667 0.000518358C110.225 -0.013529 108.802 0.25815 107.538 0.789072L90.4025 7.0917C89.6853 7.32032 88.9088 7.41953 88.1334 7.38161C86.5928 7.38161 85.3406 6.23937 85.3027 5.05074C85.2647 3.96068 86.6308 2.77785 88.1789 2.77785C90.061 2.77785 90.9034 3.52002 90.9034 4.29118C90.9034 5.23628 90.3949 5.61316 89.5222 5.61316C88.9226 5.61316 88.6646 5.38703 88.6646 5.06813C88.6646 4.25639 90.0913 4.48252 90.0913 4.48252C90.0616 4.37522 90.0017 4.27416 89.9156 4.1864C89.8295 4.09864 89.7194 4.02629 89.5929 3.97439C89.4665 3.9225 89.3267 3.89231 89.1834 3.88593C89.0401 3.87956 88.8967 3.89715 88.7633 3.93749C88.6825 3.63163 88.4685 3.35571 88.1561 3.15473C87.8675 3.36498 87.6713 3.63847 87.5946 3.93749C86.7674 3.75195 86.3727 4.00127 86.1982 4.5463C86.4743 4.45198 86.7819 4.42564 87.0785 4.47092C86.7598 5.33485 87.2682 6.65684 89.2186 6.65684C91.1538 6.65684 92.7778 5.63056 92.3832 3.70556C92.6792 4.16362 93.2559 4.39554 93.9162 4.43613C93.7416 4.08824 93.7113 3.70556 93.7113 3.70556C94.2273 3.92589 94.6827 4.23899 95.6996 4.2274C95.4871 3.86791 95.0925 3.54321 95.3429 3.07936C97.187 3.79833 99.7445 2.91701 100.336 0.667311C99.249 1.43009 97.8357 1.86488 96.3598 1.89073C91.981 1.89073 91.2297 0.95722 88.1789 0.95722C86.8964 0.95722 85.5152 1.46166 84.5817 2.45315H84.6273C84.4072 1.80955 83.9898 1.38629 83.4054 1.14856C82.8514 2.65029 82.859 4.83041 83.4661 6.00164C83.5678 6.52954 83.8214 7.03367 84.2084 7.47779C84.5955 7.92191 85.1066 8.295 85.7049 8.57024C86.5573 8.85371 87.477 9 88.4066 9C89.3362 9 90.2559 8.85371 91.1082 8.57024C93.5519 7.67732 105.231 3.46784 108.912 2.15744C109.69 1.86756 110.543 1.71497 111.409 1.71098C113.655 1.71098 114.437 3.28229 114.437 4.17521C114.437 5.24788 113.367 6.33794 112.039 6.33794C111.211 6.33794 110.695 5.98425 110.695 5.4856C110.695 4.27378 112.039 4.34916 112.881 4.58688C112.441 3.83892 111.644 3.39826 110.817 3.52002C110.73 3.0469 110.413 2.61619 109.929 2.314C109.673 2.45145 109.462 2.63141 109.311 2.84032C109.16 3.04923 109.073 3.28164 109.056 3.52002C107.766 3.27649 107.227 3.93749 106.924 4.58688C107.872 4.38395 108.965 4.25059 108.965 5.4856C108.965 6.38432 109.162 7.0917 109.937 7.50337L104.882 7.60774C103.38 7.65413 103.418 6.05383 103.865 5.03914C102.127 5.42182 101.186 6.21038 101.422 8.03101C101.279 7.75081 101.026 7.51175 100.696 7.34743C100.367 7.18311 99.9782 7.10179 99.5851 7.1149C98.166 7.1149 96.5951 7.99042 96.1246 8.57024L110.9 8.85435Z" fill="#F9BD4D"/>
</svg>
