<svg width="19" height="19" viewBox="0 0 19 19" fill="none" xmlns="http://www.w3.org/2000/svg">
<path d="M1 6.5H17.5M4.66667 1V2.83333M13.8333 1V2.83333M3.75 9.25H5.58333M8.33333 9.25H10.1667M12.9167 9.25H14.75M3.75 12H5.58333M8.33333 12H10.1667M12.9167 12H14.75M3.75 14.75H5.58333M8.33333 14.75H10.1667M12.9167 14.75H14.75M3.93333 17.5H14.5667C15.5934 17.5 16.1069 17.5 16.499 17.3002C16.8439 17.1244 17.1244 16.8439 17.3002 16.499C17.5 16.1069 17.5 15.5934 17.5 14.5667V5.76667C17.5 4.7399 17.5 4.22652 17.3002 3.83435C17.1244 3.48938 16.8439 3.20892 16.499 3.03316C16.1069 2.83333 15.5934 2.83333 14.5667 2.83333H3.93333C2.90657 2.83333 2.39319 2.83333 2.00102 3.03316C1.65605 3.20892 1.37559 3.48938 1.19982 3.83435C1 4.22652 1 4.7399 1 5.76667V14.5667C1 15.5934 1 16.1069 1.19982 16.499C1.37559 16.8439 1.65605 17.1244 2.00102 17.3002C2.39319 17.5 2.90657 17.5 3.93333 17.5Z" stroke="#FCFCFC" stroke-width="1.5" stroke-linecap="round"/>
</svg>
