<svg width="114" height="87" viewBox="0 0 114 87" fill="none" xmlns="http://www.w3.org/2000/svg">
<path d="M80.9889 0.217128C65.5714 2.64786 50.8111 35.697 43.546 50.9934C41.719 54.8407 44.9078 56.8404 46.7867 53.1609C48.1372 50.5159 51.4275 42.8395 53.2071 43.2368C61.7052 44.8547 66.2375 38.5225 63.0195 34.5384C73.8301 34.7912 79.1891 27.9973 76.1222 23.8687C79.3472 25.0351 84.0828 24.8647 88.2291 22.2818C97.0794 16.7649 96.5442 -2.23425 80.9889 0.217128Z" fill="#FCFCFC"/>
<path d="M79.1408 37.4159C77.7361 38.9255 75.2339 41.0724 73.1359 42.0091V76.2038C73.1336 76.965 72.8785 77.6127 72.4449 78.1134C72.0068 78.6088 71.44 78.9004 70.776 78.9029H29.4466C28.7826 78.9003 28.2136 78.6088 27.7754 78.1134C27.3418 77.6128 27.0866 76.9651 27.0844 76.2038V28.9834C27.0867 28.2248 27.3418 27.5746 27.7754 27.0739C28.2135 26.5785 28.7826 26.2868 29.4466 26.2843H52.6283C54.2519 23.4563 55.914 20.7392 57.6123 18.1897H29.4466C26.8495 18.1871 24.4647 19.4025 22.7665 21.3507C21.0638 23.2911 19.9978 26.016 20 28.9834V76.2038C19.9977 79.1713 21.0636 81.8961 22.7665 83.839C24.4647 85.7846 26.8495 87.0025 29.4466 87H70.776C73.3708 87.0027 75.7555 85.7847 77.4561 83.839C79.1588 81.896 80.2248 79.1711 80.2226 76.2038V37.2457C80.2226 37.2457 79.8364 36.6677 79.1408 37.4159Z" fill="#FCFCFC"/>
</svg>
