<svg width="114" height="87" viewBox="0 0 114 87" fill="none" xmlns="http://www.w3.org/2000/svg">
<path d="M91.9224 2.85634C91.2819 2.38595 90.5483 2.09928 89.7859 2.02153C89.0235 1.94378 88.2558 2.07733 87.5503 2.41045L67.7938 11.909L48.03 2.41045C48.0609 2.42947 48.0408 2.55233 48.0645 2.58718C47.4948 2.27346 46.8732 2.09577 46.2391 2.06535C45.605 2.03493 44.9721 2.15244 44.3806 2.41045L22.8003 12.7861C21.9689 13.1877 21.2606 13.8537 20.7629 14.7019C20.2653 15.55 20 16.5431 20 17.5585V79.8122C20.0018 81.1875 20.4896 82.5059 21.3566 83.4783C22.2236 84.4508 23.3989 84.998 24.625 85C25.2516 84.9973 25.8717 84.8563 26.4497 84.585L46.2062 75.0864L65.9703 84.585C66.5484 84.8563 67.1684 84.9973 67.795 85C68.4275 84.938 69.0417 84.7304 69.5994 84.3902C69.6034 84.4313 69.6198 84.5845 69.6198 84.5845L91.2001 74.2089C92.0314 73.8072 92.7396 73.1412 93.2372 72.2931C93.7348 71.4449 94 70.4519 94 69.4366V7.18289C94.0015 6.32486 93.8123 5.47993 93.4496 4.72452C93.0868 3.9691 92.5619 3.32702 91.9224 2.85634ZM29.25 20.9832L41.5803 15.0557V66.0118L29.25 71.9393V20.9832ZM50.8303 15.0456L63.1697 20.9832V71.9494L50.8303 66.0118V15.0456ZM84.75 66.0118L72.4197 71.9393V20.9832L84.75 15.0557V66.0118Z" fill="white"/>
</svg>
