<svg width="14" height="14" viewBox="0 0 14 14" fill="none" xmlns="http://www.w3.org/2000/svg">
<path opacity="0.8" d="M11.3023 9.98873H10.2852C9.90004 9.98873 9.781 9.6825 9.08919 8.98136C8.48655 8.39785 8.22 8.31943 8.07202 8.31943C7.86429 8.31943 7.80501 8.37871 7.80501 8.66533V9.58401C7.80501 9.83142 7.72612 9.97939 7.07399 9.97939C5.75853 9.89117 4.62792 9.17369 3.97159 8.12804L3.96179 8.1117C3.19996 7.16548 2.63839 6.02507 2.36064 4.77777L2.35037 4.72315C2.35037 4.57517 2.40966 4.43653 2.69628 4.43653H3.71345C3.97019 4.43653 4.06915 4.5551 4.16858 4.83145C4.6718 6.28415 5.51205 7.55853 5.85796 7.55853C5.98633 7.55853 6.04561 7.49925 6.04561 7.17342V5.67077C6.00593 4.97896 5.64043 4.92014 5.64043 4.6732C5.64463 4.5411 5.75293 4.4356 5.8855 4.4356C5.8897 4.4356 5.89343 4.4356 5.89764 4.43606H5.89717H7.49785C7.71538 4.43606 7.79427 4.55463 7.79427 4.81138V6.83732C7.79427 7.05438 7.89323 7.13374 7.95252 7.13374C8.08089 7.13374 8.19012 7.05438 8.42679 6.81771C8.91881 6.21693 9.3394 5.52979 9.6601 4.78897L9.68157 4.73295C9.74926 4.5635 9.91171 4.44587 10.1017 4.44587C10.1106 4.44587 10.119 4.44633 10.1278 4.4468H10.1264H11.1436C11.4498 4.4468 11.5194 4.60411 11.4498 4.82211C11.0418 5.72072 10.5834 6.49281 10.0522 7.20796L10.0765 7.17342C9.96819 7.35127 9.92851 7.43016 10.0765 7.62856C10.1848 7.77653 10.541 8.08276 10.7781 8.35957C11.1212 8.69894 11.4088 9.09386 11.6258 9.52986L11.6375 9.55553C11.7365 9.84122 11.588 9.98966 11.3014 9.98966L11.3023 9.98873ZM9.14894 0H4.85106C0.928479 0 0 0.928479 0 4.85106V9.14894C0 13.0715 0.928479 14 4.85106 14H9.14894C13.0715 14 14 13.0715 14 9.14894V4.85106C14 0.928479 13.0613 0 9.14894 0Z" fill="#F6AE2D"/>
</svg>
