<svg width="42" height="42" viewBox="0 0 42 42" fill="none" xmlns="http://www.w3.org/2000/svg">
<path d="M9.6001 30.8V12.88C9.6001 11.3119 9.6001 10.5278 9.90528 9.92885C10.1737 9.40199 10.6021 8.97365 11.1289 8.70521C11.7279 8.40002 12.512 8.40002 14.0801 8.40002H27.5201C29.0882 8.40002 29.8724 8.40002 30.4713 8.70521C30.9981 8.97365 31.4265 9.40199 31.6949 9.92885C32.0001 10.5278 32.0001 11.3119 32.0001 12.88V28H12.4001C10.8537 28 9.6001 29.2536 9.6001 30.8ZM9.6001 30.8C9.6001 32.3465 10.8537 33.6 12.4001 33.6H32.0001M16.6001 14H25.0001M16.6001 19.6H25.0001M30.6001 28V33.6" stroke="#7F7B82" stroke-width="2" stroke-linecap="round" stroke-linejoin="round"/>
</svg>
