<svg width="42" height="42" viewBox="0 0 42 42" fill="none" xmlns="http://www.w3.org/2000/svg">
<path d="M8 16.3333H33M27.4444 21.8908L13.5556 21.8889M18.1851 27.4451L13.5556 27.4444M13.5556 8V10.7778M27.4444 8V10.7778M12.4444 33H28.5556C30.1112 33 30.8892 33 31.4833 32.6972C32.006 32.431 32.431 32.006 32.6972 31.4833C33 30.8892 33 30.1112 33 28.5556V15.2222C33 13.6665 33 12.8887 32.6972 12.2945C32.431 11.7718 32.006 11.3468 31.4833 11.0805C30.8892 10.7778 30.1112 10.7778 28.5556 10.7778H12.4444C10.8887 10.7778 10.1109 10.7778 9.51669 11.0805C8.99401 11.3468 8.56907 11.7718 8.30276 12.2945C8 12.8887 8 13.6665 8 15.2222V28.5556C8 30.1112 8 30.8892 8.30276 31.4833C8.56907 32.006 8.99401 32.431 9.51669 32.6972C10.1109 33 10.8887 33 12.4444 33Z" stroke="#7F7B82" stroke-width="2" stroke-linecap="round" stroke-linejoin="round"/>
</svg>
