<svg width="42" height="42" viewBox="0 0 42 42" fill="none" xmlns="http://www.w3.org/2000/svg">
<path fill-rule="evenodd" clip-rule="evenodd" d="M8 21.5C8 14.5964 13.5964 9 20.5 9C27.4035 9 32.9998 14.5964 32.9998 21.5C32.9998 28.4035 27.4035 34 20.5 34C13.5964 34 8 28.4035 8 21.5ZM20.5 10.793C14.5867 10.793 9.79304 15.5867 9.79304 21.5C9.79304 27.4131 14.5867 32.207 20.5 32.207C26.4132 32.207 31.2068 27.4131 31.2068 21.5C31.2068 15.5867 26.4132 10.793 20.5 10.793ZM21.9156 27.1627C21.9156 27.9445 21.2818 28.5782 20.5 28.5782C19.7182 28.5782 19.0844 27.9445 19.0844 27.1627C19.0844 26.3809 19.7182 25.7471 20.5 25.7471C21.2818 25.7471 21.9156 26.3809 21.9156 27.1627ZM17.7635 19.1412C17.7635 17.8618 18.8677 16.6404 20.5002 16.6404C22.1327 16.6404 23.2369 17.8618 23.2369 19.1412C23.2369 20.0683 22.7273 20.5419 21.8486 21.0757C21.7506 21.1353 21.6374 21.201 21.5164 21.2712C21.1707 21.472 20.7604 21.7103 20.452 21.9506C19.9946 22.307 19.4621 22.882 19.4621 23.7654C19.4621 24.3387 19.9269 24.8034 20.5002 24.8034C21.0709 24.8034 21.534 24.3429 21.5382 23.7732L21.5393 23.7716C21.5556 23.7457 21.6041 23.6849 21.728 23.5883C21.9196 23.4391 22.1329 23.3155 22.4171 23.1508C22.5653 23.0649 22.7329 22.9678 22.9266 22.8501C23.9353 22.2373 25.313 21.2246 25.313 19.1412C25.313 16.6459 23.2088 14.5643 20.5002 14.5643C17.7916 14.5643 15.6873 16.6459 15.6873 19.1412C15.6873 19.7145 16.1521 20.1793 16.7254 20.1793C17.2987 20.1793 17.7635 19.7145 17.7635 19.1412Z" fill="#7F7B82"/>
</svg>
