<svg width="16" height="20" viewBox="0 0 16 20" fill="none" xmlns="http://www.w3.org/2000/svg">
<path opacity="0.8" fill-rule="evenodd" clip-rule="evenodd" d="M8 0C12.7653 0 16 3.62723 16 7.54001C16 9.11088 15.6534 10.7455 14.8447 12.4591C10.1557 12.4591 8.99824 15.7799 8.77942 17.8694L8.76539 18.0086C8.69125 18.7543 8.64832 19.3527 8.63664 19.8038L7.36656 20L7.36624 19.9594C7.36144 19.4866 7.31627 18.8233 7.23072 17.9695L7.22693 17.9323C7.0248 15.8474 5.89168 12.4591 1.15525 12.4591C0.34656 10.7455 0 9.11088 0 7.54001C0 3.62723 3.23467 0 8 0Z" fill="#F6AE2D"/>
</svg>
