<svg width="20" height="20" viewBox="0 0 20 20" fill="none" xmlns="http://www.w3.org/2000/svg">
<path opacity="0.8" d="M19.9998 9.93813C19.9764 8.02072 19.4089 6.14995 18.3641 4.54617C17.3194 2.94238 15.8409 1.67236 14.1029 0.885686C12.3647 0.0990116 10.4394 -0.171552 8.55361 0.105841C6.66785 0.383247 4.90009 1.19705 3.45859 2.45145C2.01707 3.70584 0.96183 5.34856 0.417127 7.18615C-0.127564 9.02376 -0.139039 10.9797 0.384076 12.8236C0.907191 14.6676 1.9431 16.3226 3.3698 17.5941C4.79649 18.8655 6.55458 19.7003 8.43698 20V12.8687H5.93692V9.93813H8.43698V7.71195C8.37911 7.19434 8.43486 6.67023 8.60036 6.17664C8.76587 5.68306 9.037 5.23203 9.39464 4.85541C9.75227 4.47877 10.1877 4.1857 10.6702 3.9969C11.1527 3.80809 11.6706 3.72814 12.1871 3.7627C12.9369 3.77303 13.6849 3.8403 14.4247 3.96394V6.4794H13.1746C12.9591 6.45205 12.7401 6.47378 12.5341 6.543C12.328 6.61221 12.14 6.72713 11.984 6.87926C11.828 7.0314 11.708 7.21686 11.6328 7.42191C11.5576 7.62705 11.5292 7.84652 11.5496 8.06411V9.96329H14.3247L13.8746 12.8938H11.5621V19.9371C13.9245 19.5612 16.0748 18.3457 17.6229 16.5112C19.1709 14.6766 20.0142 12.3447 19.9998 9.93813Z" fill="#F6AE2D"/>
</svg>
