<svg width="20" height="20" viewBox="0 0 20 20" fill="none" xmlns="http://www.w3.org/2000/svg">
<path opacity="0.8" fill-rule="evenodd" clip-rule="evenodd" d="M2.3256 9.99998C2.3256 5.52911 5.86568 1.90476 10.2326 1.90476C14.5994 1.90476 18.1395 5.52911 18.1395 9.99998C18.1395 14.4708 14.5994 18.0952 10.2326 18.0952C8.67702 18.0952 7.22909 17.6363 6.00742 16.8439C5.78007 16.6964 5.50147 16.657 5.24357 16.7358L2.56529 17.5542L3.5737 15.1383C3.69289 14.8528 3.66864 14.5258 3.50872 14.262C2.75879 13.0247 2.3256 11.5656 2.3256 9.99998ZM10.2326 0C4.83817 0 0.465136 4.47714 0.465136 9.99998C0.465136 11.7505 0.905267 13.3984 1.67875 14.8311L0.0748572 18.6733C-0.0669307 19.013 -0.00408239 19.406 0.236113 19.6816C0.476308 19.9573 0.850532 20.0659 1.19627 19.9601L5.38178 18.6814C6.81158 19.5204 8.46856 20 10.2326 20C15.627 20 20 15.5228 20 9.99998C20 4.47714 15.627 0 10.2326 0ZM12.3651 12.0784L11.1426 12.9601C10.57 12.6262 9.93702 12.1601 9.30205 11.51C8.64195 10.8342 8.15258 10.1365 7.79174 9.49646L8.56865 8.82131C8.90205 8.5316 8.9933 8.04315 8.78791 7.64787L7.79799 5.74311C7.66469 5.48663 7.42434 5.30646 7.14526 5.25384C6.86617 5.20122 6.57889 5.28189 6.36509 5.47293L6.07159 5.73518C5.3658 6.36583 4.94837 7.40217 5.29434 8.4515C5.65301 9.53931 6.41845 11.2514 7.98653 12.8568C9.67358 14.5841 11.3873 15.2643 12.3894 15.5284C13.1968 15.7412 13.9609 15.456 14.4993 15.0068L15.0496 14.5478C15.2849 14.3515 15.4119 14.0499 15.3898 13.7399C15.3675 13.4299 15.199 13.1504 14.9381 12.9913L13.3769 12.0389C13.0616 11.8466 12.6653 11.8621 12.3651 12.0784Z" fill="#F6AE2D"/>
</svg>
