<svg width="20" height="15" viewBox="0 0 20 15" fill="none" xmlns="http://www.w3.org/2000/svg">
<path opacity="0.8" d="M19.2012 12.8619C18.8356 13.6838 17.8924 14.4281 17.0068 14.5925C16.9162 14.6094 14.7517 15 10.0059 15H9.99344C5.24829 15 3.08197 14.6094 2.99197 14.5931C2.10632 14.4281 1.16254 13.6837 0.796275 12.8612C0.763774 12.7881 0 11.0294 0 7.5C0 3.97063 0.763774 2.21125 0.796275 2.13812C1.16254 1.31562 2.10632 0.571875 2.99197 0.4075C3.08197 0.390625 5.24829 0 9.99344 0C14.7517 0 16.9162 0.390625 17.0062 0.406875C17.8924 0.571875 18.8356 1.31562 19.2019 2.1375C19.2344 2.21125 20 3.97063 20 7.5C20 11.0294 19.2344 12.7881 19.2012 12.8619ZM18.0581 2.64375C17.8631 2.20563 17.2518 1.72438 16.778 1.63625C16.758 1.6325 14.6161 1.25 10.0059 1.25C5.38392 1.25 3.2401 1.6325 3.21948 1.63625C2.74571 1.72438 2.13507 2.20563 1.93944 2.64625C1.93319 2.65938 1.25066 4.26813 1.25066 7.5C1.25066 10.7312 1.93319 12.34 1.94069 12.3563C2.13507 12.7944 2.74571 13.2756 3.2201 13.3638C3.2401 13.3675 5.38392 13.75 9.99344 13.75H10.0059C14.6161 13.75 16.758 13.3675 16.7787 13.3638C17.2524 13.2756 17.8631 12.7944 18.0587 12.3538C18.0649 12.34 18.7487 10.7312 18.7487 7.5C18.7487 4.26875 18.0649 2.65937 18.0581 2.64375ZM8.46276 11.1538C8.36151 11.2181 8.24526 11.25 8.12963 11.25C8.02588 11.25 7.92212 11.2244 7.82774 11.1719C7.62836 11.0619 7.50461 10.8525 7.50461 10.625V4.375C7.50461 4.14813 7.62711 3.93937 7.82524 3.82937C8.02338 3.71875 8.26651 3.72375 8.45839 3.84313L13.4704 6.94062C13.6536 7.05375 13.7661 7.25375 13.7667 7.46938C13.7673 7.685 13.6573 7.88625 13.4748 8.00062L8.46276 11.1538ZM8.75527 5.49625V9.49312L11.9604 7.47688L8.75527 5.49625Z" fill="#F6AE2D"/>
</svg>
