<svg width="22" height="22" viewBox="0 0 22 22" fill="none" xmlns="http://www.w3.org/2000/svg">
<path d="M20.3524 3.79309H1.64764C0.737645 3.79309 0 4.53074 0 5.44073V16.5593C0 17.4692 0.737645 18.2069 1.64764 18.2069H20.3524C21.2623 18.2069 22 17.4693 22 16.5593V5.44073C22 4.53074 21.2624 3.79309 20.3524 3.79309Z" fill="#41479B"/>
<path d="M21.9772 5.16839C21.8473 4.38812 21.1695 3.79309 20.3524 3.79309H19.9237L12.8966 8.39706V3.79313H9.10345V8.39711L2.07634 3.79313H1.64764C0.8305 3.79313 0.152668 4.38812 0.0228164 5.16843L6.0289 9.10351H0V12.8966H6.0289L0.0228164 16.8316C0.152668 17.6119 0.8305 18.2069 1.64764 18.2069H2.07634L9.10345 13.6029V18.2069H12.8966V13.6029L19.9237 18.2069H20.3524C21.1695 18.2069 21.8473 17.6119 21.9772 16.8316L15.9711 12.8965H22V9.10343H15.9711L21.9772 5.16839Z" fill="#F5F5F5"/>
<path d="M12.1379 3.79309H9.86206V9.86204H0V12.1379H9.86206V18.2069H12.1379V12.1379H22V9.86204H12.1379V3.79309Z" fill="#FF4B55"/>
<path d="M1.06546 18.1006L9.0827 12.8965H7.68931L0.396484 17.6304C0.574934 17.8387 0.804258 18.0019 1.06546 18.1006Z" fill="#FF4B55"/>
<path d="M14.8836 12.8965H13.4902L21.2554 17.9369C21.4727 17.7942 21.654 17.6015 21.7833 17.3751L14.8836 12.8965Z" fill="#FF4B55"/>
<path d="M0.173828 4.70396L6.95129 9.1034H8.34468L0.664789 4.11816C0.458582 4.27165 0.289844 4.47231 0.173828 4.70396Z" fill="#FF4B55"/>
<path d="M14.2899 9.10348L21.5961 4.36081C21.4156 4.15322 21.1845 3.99097 20.9215 3.89417L12.8965 9.10348H14.2899Z" fill="#FF4B55"/>
</svg>
